<svg xmlns="http://www.w3.org/2000/svg" viewBox="0 0 483.91 135.59"><path d="M195.9 116.9h-1.6v3.1h-1.55v1.39h1.55v8.27c0 1.75.7 1.89 1.66 1.89h1.75v-1.37h-1.08c-.65 0-.73-.25-.73-.92v-7.87h1.85V120h-1.85Zm-86.46-98.1h18.24V0h-18.24Zm0 28.2h18.24V28.2h-18.24Zm0 28.2h18.24V56.4h-18.24Zm46.46 44.54a3.28 3.28 0 0 0-2.77 1.58V120h-1.6v11.55h1.6v-8a2.32 2.32 0 0 1 2.16-2.48h.13c1.29 0 1.68.83 1.68 2v8.46h1.6v-8.91c0-2-1.12-2.91-2.8-2.91Zm46.21 2.18V120h-1.6v11.55h1.6v-7c0-1.86 1-3.12 2.58-3.12a3.08 3.08 0 0 1 .68.07v-1.61a3.38 3.38 0 0 0-.45 0 2.83 2.83 0 0 0-2.81 2.03Zm-92.67-18.53h18.24v-18.8h-18.24Zm69.39 24.08c0 2.39-1.27 3.06-2.38 3.06s-1.47-.53-1.47-1.53v-9h-1.59v9c0 2 1 3 2.71 3a3 3 0 0 0 2.64-1.84v1.5h1.59V120h-1.59Zm-10.85-6.24a3 3 0 0 0-2.58-1.49c-2.27 0-3.36 2.45-3.36 5.8s.5 6.37 3.27 6.37a2.54 2.54 0 0 0 2.67-1.78v1.42h1.6V116h-1.6Zm-2.18 9.29c-2 0-2.15-2.52-2.15-4.73 0-2 .17-4.67 2.13-4.67s2.2 3 2.2 4.51c0 3.12-.49 4.89-2.15 4.89ZM145.98 18.84h9v47c0 20.77 16.33 37.6 36.48 37.6V.05h-45.48Zm0 112.75h1.67V116h-1.67Zm41.56-6.59c-1.2-.44-2-.85-2-2.11 0-1 .46-1.77 1.6-1.77s1.79.65 1.79 2h1.55a3.07 3.07 0 0 0-2.71-3.39 3.75 3.75 0 0 0-.67 0 3 3 0 0 0-3.17 2.82 2.8 2.8 0 0 0 0 .41c0 1.83 1 2.59 2.73 3.35 1.15.5 2.56.77 2.56 2.25s-.83 1.95-2.14 1.95-1.9-.81-1.9-2.3h-1.51c0 2.49.9 3.69 3.49 3.69 2.38 0 3.72-1.24 3.72-3.45s-1.68-2.84-3.34-3.45ZM27.35 103.39h18.24v-18.8H27.35ZM12.48 0H5.73v7h6.75Zm30.24 28.2h-12.5v12.93h12.5ZM-.02 131.59h18.27V112.8H-.02ZM41.3 0h-9.62v9.92h9.62Zm57.6 0H83.5v15.84h15.38ZM71.54 28.2H56.15V44h15.37ZM70.1 0H57.59v12.88h12.49Zm12 47h18.24V28.2H82.07Zm-27.36 84.59h18.24V112.8H54.71Zm27.36-28.2h18.24v-18.8H82.07Zm27.37 28.2h18.24V112.8h-18.27ZM82.1 75.2h18.24V56.4H82.07Zm-27.36 28.19h18.24v-18.8H54.71Zm27.36 28.2h18.24V112.8H82.07ZM54.74 75.2h18.24V56.4H54.71Zm-27.36 56.39h18.24V112.8H27.35Zm380.41 0h1.59V116h-1.59Zm-5.4-4.12c0 2.39-1.26 3.06-2.37 3.06s-1.44-.53-1.44-1.5v-9h-1.6V129c0 2 1 3 2.7 3a3 3 0 0 0 2.66-1.84v1.5h1.64V120h-1.6Zm17.26 4.12h1.59V120h-1.59Zm-4.67-14.69h-1.61v3.1h-1.56v1.39h1.56v8.27c0 1.75.69 1.89 1.67 1.89h1.73v-1.37h-1.06c-.65 0-.73-.25-.73-.92v-7.87h1.84V120h-1.84Zm-46.23 2.84c-2.76 0-4 2.18-4 6 0 4.74 1.6 6.13 4 6.13s4-1.39 4-6.12c0-3.83-1.19-6-4-6Zm0 10.78c-1.84 0-2.34-1.84-2.34-4.57 0-3.51.65-4.83 2.34-4.83s2.35 1.32 2.35 4.83c0 2.73-.43 4.57-2.32 4.57Zm-11.38-13.25c2.1 0 2.71 1.54 2.71 3.42h1.68c0-2.79-1.44-5-4.31-5-4.12 0-4.76 4.39-4.76 7.9 0 3.69.35 8.36 4.8 8.36 3.22 0 4.08-2.4 4.27-6h-1.68c-.16 2.58-.53 4.43-2.71 4.43-2.77 0-2.94-3.67-2.94-6.83 0-2 0-6.28 3-6.28Zm-149.46 14.32h1.59V120h-1.59Zm172.68-11.85a3.29 3.29 0 0 0-2.78 1.58V120h-1.61v11.55h1.58v-8a2.35 2.35 0 0 1 2.2-2.45h.11c1.31 0 1.69.83 1.69 2v8.46h1.59v-8.91c0-2-1.09-2.91-2.76-2.91ZM425.8 37.6c20.18 0 36.48-16.84 36.48-37.6h-54.73c-20.14 0-36.47 16.83-36.47 37.6v28.2c0 20.77 16.33 37.59 36.47 37.59h18.25c20.14 0 36.48-16.82 36.48-37.59h-54.73V37.6Zm-6.18 80.53h1.59v-2.08h-1.59ZM483.08 3.24a5.89 5.89 0 0 0-2.34-2.38 6.11 6.11 0 0 0-6.16 0 6 6 0 0 0-2.34 2.38 6.69 6.69 0 0 0-.84 3.24 6.53 6.53 0 0 0 .83 3.2 6 6 0 0 0 2.31 2.38 6.21 6.21 0 0 0 3.12.87 6 6 0 0 0 3.11-.87 5.82 5.82 0 0 0 2.31-2.38 6.63 6.63 0 0 0 .83-3.2 6.91 6.91 0 0 0-.83-3.27Zm-.9 5.91a5 5 0 0 1-1.93 2 5.06 5.06 0 0 1-5.18 0 5 5 0 0 1-1.93-2 5.43 5.43 0 0 1-.7-2.67 5.67 5.67 0 0 1 .71-2.7 4.82 4.82 0 0 1 2-2 5 5 0 0 1 5.12 0 4.88 4.88 0 0 1 1.95 2 5.62 5.62 0 0 1 0 5.37Zm-3.43-1.84a1.62 1.62 0 0 0-.57-.31 2.07 2.07 0 0 0 1.4-.63 2 2 0 0 0 .54-1.37 1.78 1.78 0 0 0-.33-1 1.69 1.69 0 0 0-.84-.67 5.55 5.55 0 0 0-1.72-.19h-2.32v6.93h1.07V7.11h.64a1.34 1.34 0 0 1 .87.24A6 6 0 0 1 478.66 9l.59 1.1h1.32l-.82-1.36a9.23 9.23 0 0 0-1-1.41Zm-1.42-1.18h-1.35V4h1.24a3.32 3.32 0 0 1 1.09.12.86.86 0 0 1 .46.36.86.86 0 0 1 .17.56 1 1 0 0 1-.34.77 2.16 2.16 0 0 1-1.27.32Zm-47.92 113.61a3.32 3.32 0 0 0-2.78 1.58V120h-1.65v11.55h1.6v-8a2.34 2.34 0 0 1 2.2-2.46h.1c1.31 0 1.68.83 1.68 2v8.46h1.59v-8.91c.02-1.99-1.06-2.9-2.74-2.9Zm12.13 1.62a2.73 2.73 0 0 0-2.5-1.62c-3 0-3.44 3.35-3.44 6.05 0 4.18.94 6.12 3.46 6.12a2.6 2.6 0 0 0 2.38-1.66h.14v1.07c0 2.14-.65 2.84-2.43 2.84a1.51 1.51 0 0 1-1.69-1.31s0-.1 0-.15h-1.56a3 3 0 0 0 3.14 2.86h.2c2.41 0 3.94-1.15 3.94-4v-11.5h-1.6Zm-2.19 9.16c-2 0-2.14-2.52-2.14-4.73 0-2 .18-4.67 2.12-4.67s2.21 3 2.21 4.51c0 3.12-.54 4.89-2.19 4.89ZM390.48 125c-1.2-.44-2-.85-2-2.11 0-1 .47-1.77 1.6-1.77s1.78.65 1.78 2h1.55a3.07 3.07 0 0 0-2.71-3.39 3.75 3.75 0 0 0-.67 0 3 3 0 0 0-3.17 2.82 2.8 2.8 0 0 0 0 .41c0 1.83 1 2.59 2.74 3.35 1.14.5 2.55.77 2.55 2.25s-.84 1.95-2.14 1.95-1.89-.81-1.89-2.3h-1.51c0 2.49.9 3.69 3.49 3.69 2.37 0 3.71-1.24 3.71-3.45s-1.68-2.84-3.33-3.45Zm-112.16 4.5v-6.82a2.78 2.78 0 0 0-2.59-3 3.25 3.25 0 0 0-.54 0c-2.1 0-3.23 1-3.23 3.42h1.42c0-1.34.44-2 1.64-2s1.7.48 1.7 1.8c0 .58 0 1.17-.41 1.37-.18.08-1.27.58-2 .86-1.95.77-2.78 1.52-2.78 3.57s.92 3.19 2.87 3.19a2.86 2.86 0 0 0 2.48-1.87c.25 1.55.75 1.69 1.73 1.69a1.3 1.3 0 0 0 .64-.14v-1.21a2 2 0 0 1-.35.05c-.39 0-.58-.43-.58-1Zm-1.6-1.41c0 1.19-.39 2.34-2.06 2.34-1.07 0-1.48-.75-1.48-1.78 0-2.22 1.88-2.35 3.54-3.36Zm-11.15-8.35a3.28 3.28 0 0 0-2.77 1.58V120h-1.6v11.55h1.6v-8a2.32 2.32 0 0 1 2.16-2.48h.13c1.3 0 1.68.83 1.68 2v8.46h1.59v-8.91c0-2-1.11-2.91-2.79-2.91Zm-24.23 8.39a16.5 16.5 0 0 0-.38 2.32 17.87 17.87 0 0 0-.3-2.3l-3-12.16h-3v15.57h1.67v-12.75c0-.67-.06-1.19-.06-2l.45 1.91 3.26 12.87h2l3.17-12.72.51-2.08h.05c0 .59-.05 1.31-.05 2v12.82h1.67V116h-3Zm16 1.34v-6.82a2.78 2.78 0 0 0-2.59-3 3.09 3.09 0 0 0-.53 0c-2.1 0-3.23 1-3.23 3.42h1.43c0-1.34.44-2 1.63-2s1.71.48 1.71 1.8c0 .58 0 1.17-.43 1.37-.16.08-1.25.58-2 .86-1.95.77-2.79 1.52-2.79 3.57s.92 3.19 2.87 3.19a2.86 2.86 0 0 0 2.48-1.87c.26 1.55.77 1.69 1.72 1.69a1.38 1.38 0 0 0 .66-.14v-1.21a2.23 2.23 0 0 1-.36.05c-.34 0-.54-.4-.54-.94Zm-1.55-1.34c0 1.19-.41 2.34-2.06 2.34-1.08 0-1.49-.75-1.49-1.78 0-2.22 1.88-2.35 3.55-3.36Zm-47.88-10h1.59v-2.08h-1.59Zm15.37 13.49h1.6V116h-1.6Zm-3.8-2.09v-6.82a2.79 2.79 0 0 0-2.61-3 3.13 3.13 0 0 0-.53 0c-2.09 0-3.23 1-3.23 3.42h1.43c0-1.34.45-2 1.64-2s1.7.48 1.7 1.8c0 .58 0 1.17-.42 1.37-.16.08-1.25.58-2 .86-2 .77-2.79 1.52-2.79 3.57s.92 3.19 2.87 3.19a2.86 2.86 0 0 0 2.48-1.87c.26 1.55.76 1.69 1.72 1.69a1.34 1.34 0 0 0 .65-.14v-1.21a1.49 1.49 0 0 1-.36.05c-.37-.07-.55-.46-.55-1Zm-1.6-1.41c0 1.19-.4 2.34-2.06 2.34-1.06 0-1.48-.75-1.48-1.78 0-2.22 1.88-2.35 3.54-3.36Zm105-8.35c-3 0-3.59 3.15-3.59 6 0 4.66 1.36 6.12 3.72 6.12s3.38-1.9 3.38-4.16h-1.6c0 1.32-.28 2.77-1.82 2.77-1.87 0-2-1.67-2-4.31h5.43c-.06-3.11-.4-6.5-3.57-6.5Zm-1.9 5.08c0-1.53.18-3.7 1.94-3.7 1.61 0 1.83 1.95 1.83 3.7Zm21.65-7.92h-1.65v3.14h-1.6v1.39h1.6v8.27c0 1.75.7 1.89 1.67 1.89h1.74v-1.37h-1.11c-.66 0-.74-.25-.74-.92v-7.9h1.83V120h-1.83Zm-8.45 2.84a3.28 3.28 0 0 0-2.77 1.58v-1.28h-1.6v11.55h1.6v-8a2.32 2.32 0 0 1 2.16-2.48h.13c1.3 0 1.68.83 1.68 2v8.46h1.6v-8.91c-.07-2-1.16-2.94-2.84-2.94Zm21.59-16.3v-84.6h9.12V.05h-45.68a36.26 36.26 0 0 0-31.59 18.83l-4.86 8.72-4.87-8.72A36.29 36.29 0 0 0 246.27.05c-20.14 0-36.47 16.83-36.47 37.59v65.8h36.47v-65.8l36.5 65.26 36.47-65.26v28.2c0 20.77 16.31 37.6 36.46 37.6Zm-42.61 16.3a3.45 3.45 0 0 0-2.94 1.75 2.46 2.46 0 0 0-2.62-1.75 3.32 3.32 0 0 0-2.78 1.58v-1.28h-1.6v11.55h1.6v-7.82a2.35 2.35 0 0 1 2-2.65h.2c1.32 0 1.73.8 1.73 2v8.46h1.59v-7.82c0-1.8 1.09-2.65 2.28-2.65 1.37 0 1.7.87 1.7 2.17v8.3h1.59v-8.91c0-2.09-1.2-2.94-2.8-2.94Zm-25.41 1.62h-.05a2.69 2.69 0 0 0-2.48-1.62c-3 0-3.45 3.35-3.45 6 0 4.18.94 6.12 3.47 6.12a2.54 2.54 0 0 0 2.36-1.66h.15v1.07c0 2.14-.65 2.84-2.43 2.84a1.51 1.51 0 0 1-1.69-1.31s0-.1 0-.15h-1.65a3 3 0 0 0 3.14 2.86h.2c2.41 0 3.94-1.15 3.94-4v-11.48h-1.59Zm-2.19 9.16c-2 0-2.14-2.52-2.14-4.73 0-2 .18-4.67 2.12-4.67s2.21 3 2.21 4.51c-.05 3.09-.58 4.86-2.24 4.86Zm10.76-10.78c-3 0-3.58 3.15-3.58 6 0 4.66 1.36 6.12 3.7 6.12s3.4-1.9 3.4-4.16h-1.61c0 1.32-.3 2.77-1.82 2.77-1.88 0-2-1.67-2-4.31h5.45c-.07-3.11-.42-6.5-3.59-6.5Zm-1.93 5.08c0-1.53.19-3.7 2-3.7 1.58 0 1.82 1.95 1.82 3.7Z"/></svg>