<svg xmlns="http://www.w3.org/2000/svg" viewBox="0 0 484 135"><path fill="#8bd042" d="M109.48 18.73h18.24V0h-18.24v18.73Zm0 28.09h18.24V28.09h-18.24v18.73Zm0 28.09h18.24V56.18h-18.24v18.73Zm0 28.08h18.24V84.26h-18.24v18.73Zm36.5-84.2h9.12V65.6c0 20.69 16.33 37.44 36.49 37.44V.05h-45.61v18.73Zm-118.62 84.2H45.6V84.26H27.36v18.73ZM12.5 0H5.75v6.93h6.75V0Zm30.25 28.09h-12.5v12.83h12.5V28.09ZM0 131.08h18.25v-18.73H0v18.73ZM41.31 0h-9.63v9.88h9.63V0Zm57.6 0H83.54v15.78h15.37V0ZM71.55 28.09H56.18v15.78h15.37V28.09ZM70.11 0H57.62v12.83h12.49V0ZM82.1 46.81h18.24V28.08H82.1v18.73Zm-27.36 84.26h18.25v-18.73H54.74v18.73Zm27.36-28.09h18.24V84.25H82.1v18.73Zm27.37 28.09h18.24v-18.73h-18.24v18.73ZM82.1 74.89h18.24V56.16H82.1v18.73Zm-27.36 28.09h18.25V84.25H54.74v18.73Zm27.36 28.09h18.24v-18.73H82.1v18.73ZM54.74 74.89h18.25V56.16H54.74v18.73Zm-27.36 56.18h18.24v-18.73H27.38v18.73Zm398.5-93.62c20.14 0 36.49-16.77 36.49-37.45h-54.74c-20.14 0-36.48 16.76-36.48 37.45v28.09c0 20.69 16.33 37.44 36.48 37.44h18.25c20.14 0 36.49-16.76 36.49-37.44h-54.74V37.45h18.25ZM483.17 3.2a6.3 6.3 0 0 0-5.41-3.2c-1.05 0-2.08.28-3.08.83a5.93 5.93 0 0 0-2.34 2.37 6.6 6.6 0 0 0-.01 6.42 5.86 5.86 0 0 0 2.31 2.37 6.1 6.1 0 0 0 6.23 0 5.8 5.8 0 0 0 2.31-2.37c.54-1.02.82-2.09.82-3.2s-.28-2.19-.83-3.22Zm-.89 5.88a5.21 5.21 0 0 1-4.52 2.69 5.21 5.21 0 0 1-4.53-2.69 5.47 5.47 0 0 1 .01-5.34 5.2 5.2 0 0 1 4.52-2.68 5.25 5.25 0 0 1 5.2 5.36 5.6 5.6 0 0 1-.68 2.66Zm-3.43-1.82a1.8 1.8 0 0 0-.57-.36 2.08 2.08 0 0 0 1.4-.63 1.83 1.83 0 0 0-.63-3 5.44 5.44 0 0 0-1.71-.19h-2.32v6.9h1.09V7.06h.64c.38 0 .68.07.87.24.28.22.67.75 1.15 1.59l.59 1.09h1.32l-.82-1.35a8.1 8.1 0 0 0-1-1.36Zm-1.43-1.17h-1.33V4h1.25c.52 0 .89.05 1.09.13.2.07.36.2.46.36a.9.9 0 0 1 .17.55c0 .32-.11.58-.34.77-.24.2-.66.29-1.29.29h-.01Zm-121.67 96.97V18.77h9.12V.05h-45.62c-13.49 0-25.3 7.55-31.59 18.75h-.02l-4.87 8.68-4.87-8.69h-.02C271.61 7.6 259.82.05 246.3.05c-20.15 0-36.49 16.76-36.49 37.44v65.54h36.49V37.5l36.5 64.99 36.48-64.99v28.09c0 20.69 16.34 37.44 36.5 37.44l-.02.03Zm-202.38 12.79v1.79h-6.97v-1.79h6.97Zm-4.94-3.29h2.07v13.08c0 .6.08 1.04.25 1.34.17.29.4.49.66.59.27.1.56.14.87.14.23 0 .41-.01.56-.04l.35-.07.42 1.89a4.26 4.26 0 0 1-1.54.25c-.58 0-1.15-.13-1.72-.38a3.46 3.46 0 0 1-1.38-1.17 3.42 3.42 0 0 1-.54-1.98v-13.65Zm13.54 17.29a6.18 6.18 0 0 1-3.35-.88 5.85 5.85 0 0 1-2.16-2.47c-.5-1.06-.75-2.29-.75-3.7s.25-2.64.75-3.72a5.58 5.58 0 0 1 5.31-3.43c.7 0 1.39.12 2.07.36a5.23 5.23 0 0 1 3.2 3.27c.33.88.5 1.95.5 3.23v.89h-10.36v-1.82h8.26a4.6 4.6 0 0 0-.45-2.07 3.44 3.44 0 0 0-3.22-1.97c-.82 0-1.53.21-2.14.63-.6.41-1.05.95-1.37 1.61a4.82 4.82 0 0 0-.48 2.13v1.22c0 1.04.17 1.91.52 2.64a3.85 3.85 0 0 0 3.68 2.18c.54 0 1.03-.08 1.47-.23.44-.16.83-.4 1.15-.71.32-.32.57-.72.74-1.2l2 .57c-.21.69-.56 1.3-1.06 1.82s-1.11.92-1.84 1.22c-.73.29-1.55.43-2.46.43Zm10.77-18.58v18.3h-2.07v-18.3h2.07Zm9.42 18.58c-1.3 0-2.41-.29-3.35-.88a5.85 5.85 0 0 1-2.16-2.47c-.5-1.06-.75-2.29-.75-3.7s.25-2.64.75-3.72a5.58 5.58 0 0 1 5.31-3.43c.7 0 1.39.12 2.07.36a5.23 5.23 0 0 1 3.2 3.27c.33.88.5 1.95.5 3.23v.89h-10.36v-1.82h8.26a4.6 4.6 0 0 0-.45-2.07 3.44 3.44 0 0 0-3.22-1.97c-.82 0-1.53.21-2.14.63-.6.41-1.05.95-1.37 1.61a4.82 4.82 0 0 0-.48 2.13v1.22c0 1.04.18 1.91.53 2.64a3.85 3.85 0 0 0 3.68 2.18c.54 0 1.03-.08 1.47-.23.44-.16.83-.4 1.15-.71.32-.32.57-.72.74-1.2l1.99.57c-.21.69-.56 1.3-1.06 1.82s-1.11.92-1.84 1.22c-.73.29-1.55.43-2.46.43Zm14.17 0c-1.26 0-2.35-.3-3.26-.91a5.9 5.9 0 0 1-2.1-2.51c-.49-1.07-.74-2.28-.74-3.65s.25-2.62.75-3.69a6.02 6.02 0 0 1 2.12-2.51 5.58 5.58 0 0 1 3.19-.91c.94 0 1.8.18 2.56.54a4.78 4.78 0 0 1 2.76 3.75h-2.07a3.28 3.28 0 0 0-1.05-1.66 3.1 3.1 0 0 0-2.17-.73c-.8 0-1.51.21-2.12.64a4.16 4.16 0 0 0-1.41 1.8c-.33.77-.5 1.67-.5 2.71s.16 1.98.49 2.77c.33.79.8 1.4 1.4 1.83.61.43 1.32.65 2.14.65.54 0 1.02-.1 1.46-.29.44-.19.81-.46 1.11-.82.3-.36.52-.79.65-1.29h2.07a5 5 0 0 1-2.68 3.73 5.7 5.7 0 0 1-2.61.56Zm13.76 0a5.75 5.75 0 0 1-3.19-.88 6.02 6.02 0 0 1-2.14-2.47c-.51-1.06-.76-2.3-.76-3.72s.25-2.68.76-3.74a5.85 5.85 0 0 1 2.14-2.48c.92-.59 1.98-.88 3.19-.88s2.27.29 3.19.88a5.9 5.9 0 0 1 2.14 2.48c.51 1.07.77 2.31.77 3.74s-.26 2.66-.77 3.72a5.72 5.72 0 0 1-5.33 3.35Zm0-1.89c.92 0 1.68-.24 2.27-.72a4.2 4.2 0 0 0 1.32-1.9c.29-.79.43-1.64.43-2.56s-.14-1.77-.43-2.56a4.41 4.41 0 0 0-1.32-1.92c-.59-.49-1.35-.73-2.27-.73s-1.68.24-2.28.73a4.33 4.33 0 0 0-1.32 1.92 7.64 7.64 0 0 0 0 5.12 4.3 4.3 0 0 0 1.32 1.9c.6.48 1.35.72 2.28.72Zm9.24 1.61v-13.72h2v2.14h.17c.28-.73.73-1.3 1.36-1.71.62-.41 1.37-.62 2.25-.62s1.62.21 2.21.62c.59.4 1.06.97 1.39 1.71h.14c.34-.71.86-1.27 1.55-1.69a4.66 4.66 0 0 1 2.48-.63c1.2 0 2.18.38 2.95 1.15.76.76 1.15 1.95 1.15 3.56v9.18h-2.07v-9.18c0-1.01-.27-1.74-.81-2.17a3 3 0 0 0-1.92-.65c-.95 0-1.68.29-2.2.88a3.17 3.17 0 0 0-.78 2.2v8.93h-2.1v-9.4c0-.78-.25-1.41-.74-1.89a2.64 2.64 0 0 0-1.92-.72c-.54 0-1.04.15-1.51.44-.46.29-.83.7-1.12 1.22-.28.51-.42 1.1-.42 1.78v8.58h-2.07Zm21.42 0v-13.72h2v2.14h.17c.28-.73.73-1.3 1.36-1.71.62-.41 1.37-.62 2.25-.62s1.62.21 2.21.62c.6.4 1.06.97 1.39 1.71h.14c.34-.71.86-1.27 1.55-1.69a4.66 4.66 0 0 1 2.48-.63c1.2 0 2.18.38 2.95 1.15.76.76 1.15 1.95 1.15 3.56v9.18h-2.07v-9.18c0-1.01-.27-1.74-.81-2.17s-1.18-.65-1.92-.65c-.94 0-1.68.29-2.2.88a3.17 3.17 0 0 0-.78 2.2v8.93h-2.1v-9.4c0-.78-.25-1.41-.74-1.89a2.64 2.64 0 0 0-1.92-.72c-.54 0-1.04.15-1.51.44-.46.29-.83.7-1.12 1.22-.28.51-.42 1.1-.42 1.78v8.58h-2.07Zm29.89-5.61v-8.11h2.07v13.72h-2.07v-2.32h-.14c-.32.7-.8 1.29-1.47 1.78-.67.48-1.51.72-2.52.72-.84 0-1.59-.19-2.24-.56a3.87 3.87 0 0 1-1.54-1.72 6.7 6.7 0 0 1-.56-2.9v-8.72h2.07v8.58c0 1 .27 1.8.82 2.39.55.6 1.26.89 2.12.89.51 0 1.04-.13 1.57-.4.54-.27.99-.68 1.35-1.23.37-.55.55-1.26.55-2.12Zm7.91-2.65v8.25h-2.07v-13.72h2v2.14h.17c.32-.7.79-1.26 1.44-1.68a4.37 4.37 0 0 1 2.48-.64c.91 0 1.71.19 2.39.57.68.38 1.21.95 1.59 1.72.38.76.57 1.73.57 2.89v8.72h-2.07v-8.58a3.6 3.6 0 0 0-.82-2.52 2.88 2.88 0 0 0-2.26-.91c-.66 0-1.25.15-1.77.44-.51.29-.92.72-1.22 1.28-.3.56-.44 1.24-.44 2.04Zm12.35 8.26v-13.72h2.06v13.72h-2.06Zm1.05-16.01c-.4 0-.75-.14-1.04-.42-.29-.28-.43-.62-.43-1.01s.14-.73.43-1.01.64-.42 1.04-.42.75.14 1.03.42c.29.28.44.62.44 1.01s-.15.73-.44 1.01c-.29.28-.63.42-1.03.42Zm10.26 16.29a5.67 5.67 0 0 1-5.35-3.42c-.49-1.07-.73-2.28-.73-3.65s.25-2.62.75-3.69a6.02 6.02 0 0 1 2.12-2.51 5.58 5.58 0 0 1 3.19-.91c.95 0 1.8.18 2.56.54a4.9 4.9 0 0 1 1.86 1.5c.49.64.79 1.39.9 2.25h-2.07a3.28 3.28 0 0 0-1.05-1.66 3.1 3.1 0 0 0-2.17-.73c-.81 0-1.51.21-2.12.64a4.16 4.16 0 0 0-1.41 1.8c-.33.77-.5 1.67-.5 2.71s.16 1.98.49 2.77c.33.79.8 1.4 1.4 1.83.6.43 1.32.65 2.13.65.54 0 1.02-.1 1.46-.29.44-.19.81-.46 1.11-.82.3-.36.52-.79.65-1.29h2.07a5 5 0 0 1-2.68 3.73 5.7 5.7 0 0 1-2.61.56Zm12.26.04c-.85 0-1.62-.16-2.32-.49a3.91 3.91 0 0 1-2.26-3.73c0-.79.15-1.42.46-1.91.3-.49.71-.88 1.21-1.16a6.49 6.49 0 0 1 1.68-.63 20.2 20.2 0 0 1 1.86-.34c.82-.11 1.48-.19 1.99-.24.51-.06.89-.16 1.12-.29.24-.14.36-.38.36-.71v-.07c0-.88-.24-1.57-.71-2.05-.47-.49-1.18-.73-2.13-.73s-1.76.22-2.32.66a3.9 3.9 0 0 0-1.18 1.41l-1.96-.71a4.9 4.9 0 0 1 3.32-2.93c.7-.19 1.39-.29 2.07-.29.43 0 .93.05 1.49.16.57.1 1.11.31 1.64.63.53.32.97.81 1.32 1.46.35.65.53 1.52.53 2.61v9.04h-2.07v-1.86h-.1a4.1 4.1 0 0 1-2 1.83c-.54.24-1.21.36-1.99.36Zm.31-1.89c.82 0 1.5-.16 2.07-.49a3.4 3.4 0 0 0 1.72-2.9v-1.93c-.09.11-.28.21-.58.29-.29.08-.63.16-1.01.22l-1.11.16-.86.11c-.54.07-1.04.19-1.51.35-.46.15-.83.39-1.12.71-.28.31-.42.73-.42 1.27 0 .73.27 1.29.8 1.66.54.37 1.22.55 2.04.55Zm15.46-12.15v1.79h-6.97v-1.79h6.97Zm-4.93-3.29h2.07v13.08c0 .6.08 1.04.25 1.34.18.29.4.49.66.59.28.1.56.14.87.14.23 0 .41-.01.56-.04l.35-.07.42 1.89a4.26 4.26 0 0 1-1.54.25 4.2 4.2 0 0 1-1.72-.38 3.53 3.53 0 0 1-1.38-1.17 3.42 3.42 0 0 1-.54-1.98v-13.65Zm8.04 17.01v-13.72h2.07v13.72h-2.07Zm1.05-16.01a1.45 1.45 0 0 1-1.47-1.43c0-.39.14-.73.43-1.01s.64-.42 1.04-.42.75.14 1.03.42c.29.28.44.62.44 1.01s-.14.73-.44 1.01c-.28.28-.63.42-1.03.42Zm10.26 16.29a5.75 5.75 0 0 1-3.19-.88 6.02 6.02 0 0 1-2.14-2.47c-.51-1.06-.76-2.3-.76-3.72s.25-2.68.76-3.74a5.91 5.91 0 0 1 2.14-2.48 5.75 5.75 0 0 1 3.19-.88 5.71 5.71 0 0 1 5.32 3.36c.51 1.07.77 2.31.77 3.74s-.26 2.66-.77 3.72a5.71 5.71 0 0 1-5.32 3.35Zm0-1.89c.92 0 1.68-.24 2.27-.72a4.27 4.27 0 0 0 1.32-1.9c.29-.79.43-1.64.43-2.56s-.14-1.77-.43-2.56a4.33 4.33 0 0 0-1.32-1.92c-.6-.49-1.35-.73-2.27-.73s-1.68.24-2.28.73a4.41 4.41 0 0 0-1.32 1.92 7.64 7.64 0 0 0 0 5.12 4.3 4.3 0 0 0 1.32 1.9c.6.48 1.36.72 2.28.72Zm11.3-6.65v8.25h-2.06v-13.72h2v2.14h.17c.31-.7.79-1.26 1.43-1.68a4.38 4.38 0 0 1 2.49-.64c.91 0 1.71.19 2.39.57.68.38 1.21.95 1.59 1.72.38.76.57 1.73.57 2.89v8.72h-2.06v-8.58c0-1.08-.28-1.92-.82-2.52a2.88 2.88 0 0 0-2.26-.91c-.66 0-1.25.15-1.77.44-.52.29-.92.72-1.22 1.28-.3.56-.45 1.24-.45 2.04Zm21.87-2.39-1.86.54a3.54 3.54 0 0 0-.52-.92c-.22-.3-.53-.55-.91-.75s-.88-.29-1.48-.29c-.82 0-1.51.19-2.06.58-.54.38-.81.87-.81 1.46 0 .52.19.94.56 1.24.37.3.96.56 1.75.76l2 .5c1.2.3 2.1.75 2.69 1.37.59.61.88 1.39.88 2.35 0 .79-.22 1.49-.66 2.11a4.46 4.46 0 0 1-1.84 1.47c-.79.36-1.7.54-2.75.54a5.9 5.9 0 0 1-3.4-.91 4.04 4.04 0 0 1-1.71-2.66l1.96-.5c.18.74.54 1.29 1.06 1.66a3.5 3.5 0 0 0 2.06.55c.96 0 1.72-.21 2.29-.63.57-.42.86-.93.86-1.52 0-.48-.16-.88-.49-1.2a3.1 3.1 0 0 0-1.5-.73l-2.24-.54a5.36 5.36 0 0 1-2.71-1.38 3.4 3.4 0 0 1-.86-2.37c0-.77.21-1.46.64-2.05a4.32 4.32 0 0 1 1.76-1.4 6.06 6.06 0 0 1 2.54-.51c1.33 0 2.38.3 3.13.89.76.6 1.31 1.38 1.63 2.36ZM393.54 135c-1 0-1.86-.13-2.57-.39a5.52 5.52 0 0 1-2.92-2.36l1.65-1.18c.18.25.42.54.71.86.28.33.68.61 1.17.85.5.24 1.16.37 1.97.37 1.08 0 1.98-.27 2.69-.8.7-.54 1.06-1.38 1.06-2.52v-2.79h-.18c-.15.25-.37.56-.65.93a3.6 3.6 0 0 1-1.19.97c-.52.28-1.21.42-2.08.42a5.44 5.44 0 0 1-2.92-.79 5.44 5.44 0 0 1-2.04-2.29c-.5-1-.75-2.22-.75-3.64s.24-2.63.73-3.67a5.73 5.73 0 0 1 2.02-2.43 5.23 5.23 0 0 1 2.99-.87c.88 0 1.57.15 2.08.45.52.29.91.63 1.19 1 .28.37.49.67.65.91h.21v-2.18h2v14.12c0 1.18-.26 2.14-.79 2.88a4.49 4.49 0 0 1-2.1 1.63c-.88.35-1.85.53-2.92.53Zm-.07-7.54c.83 0 1.53-.19 2.1-.58a3.55 3.55 0 0 0 1.3-1.67c.3-.73.45-1.6.45-2.61s-.15-1.86-.44-2.62a3.85 3.85 0 0 0-1.3-1.78c-.57-.43-1.28-.64-2.12-.64s-1.61.23-2.19.68a4.08 4.08 0 0 0-1.3 1.82c-.28.76-.43 1.61-.43 2.54s.15 1.8.44 2.53c.3.73.73 1.3 1.31 1.72a3.7 3.7 0 0 0 2.17.62Zm9.66 2.11v-13.72h2v2.07h.14a3.3 3.3 0 0 1 1.33-1.65 3.88 3.88 0 0 1 2.17-.63h.57c.23 0 .4.01.52.03v2.14l-.48-.08c-.24-.04-.5-.06-.78-.06a3.6 3.6 0 0 0-1.75.42 3.13 3.13 0 0 0-1.65 2.79v8.68h-2.07Zm14.22.28a5.75 5.75 0 0 1-3.19-.88 6.02 6.02 0 0 1-2.14-2.47c-.51-1.06-.76-2.3-.76-3.72s.25-2.68.76-3.74a5.91 5.91 0 0 1 2.14-2.48 5.75 5.75 0 0 1 3.19-.88 5.71 5.71 0 0 1 5.32 3.36c.51 1.07.77 2.31.77 3.74s-.26 2.66-.77 3.72a5.71 5.71 0 0 1-5.32 3.35Zm0-1.89c.92 0 1.68-.24 2.27-.72a4.27 4.27 0 0 0 1.32-1.9c.29-.79.43-1.64.43-2.56s-.14-1.77-.43-2.56a4.33 4.33 0 0 0-1.32-1.92c-.6-.49-1.35-.73-2.27-.73s-1.68.24-2.28.73a4.41 4.41 0 0 0-1.32 1.92 7.64 7.64 0 0 0 0 5.12 4.3 4.3 0 0 0 1.32 1.9c.6.48 1.36.72 2.28.72Zm17.71-4v-8.11h2.06v13.72h-2.06v-2.32h-.14a4.18 4.18 0 0 1-3.99 2.5c-.84 0-1.59-.19-2.24-.56a3.87 3.87 0 0 1-1.54-1.72 6.7 6.7 0 0 1-.56-2.9v-8.72h2.06v8.58c0 1 .27 1.8.82 2.39.55.6 1.26.89 2.12.89.51 0 1.04-.13 1.56-.4.54-.27.99-.68 1.35-1.23.37-.55.55-1.26.55-2.12Zm5.85 10.75v-18.87h1.99v2.18h.25c.15-.24.36-.54.63-.91.27-.38.66-.71 1.17-1 .51-.3 1.21-.45 2.08-.45 1.13 0 2.13.29 2.99.87.86.58 1.54 1.4 2.02 2.46.49 1.06.73 2.31.73 3.75s-.24 2.71-.73 3.78a5.82 5.82 0 0 1-2.01 2.47c-.86.58-1.85.87-2.97.87-.86 0-1.56-.15-2.07-.44-.52-.3-.92-.63-1.2-1.01-.28-.38-.5-.7-.65-.95h-.18v7.25h-2.06Zm2.03-12.01c0 1.04.15 1.95.45 2.74.3.79.73 1.4 1.3 1.85.57.44 1.27.66 2.1.66s1.59-.23 2.16-.7a4.27 4.27 0 0 0 1.31-1.89c.3-.8.44-1.69.44-2.66s-.14-1.83-.44-2.61a4 4 0 0 0-1.3-1.85c-.58-.46-1.3-.69-2.18-.69s-1.55.22-2.12.65c-.57.43-1 1.03-1.29 1.8a7.58 7.58 0 0 0-.44 2.69Z"/></svg>