<?xml version="1.0" standalone="no"?>
<!DOCTYPE svg PUBLIC "-//W3C//DTD SVG 20010904//EN"
 "http://www.w3.org/TR/2001/REC-SVG-20010904/DTD/svg10.dtd">
<svg version="1.0" xmlns="http://www.w3.org/2000/svg"
 width="260.000000pt" height="260.000000pt" viewBox="0 0 260.000000 260.000000"
 preserveAspectRatio="xMidYMid meet">
<metadata>
Created by potrace 1.14, written by Peter Selinger 2001-2017
</metadata>
<g transform="translate(0.000000,260.000000) scale(0.100000,-0.100000)"
fill="#000000" stroke="none">
<path d="M250 2395 c0 -37 4 -55 13 -56 6 0 33 -1 59 -2 l46 -2 4 53 c2 30 1
56 -1 58 -2 2 -31 4 -63 4 l-58 0 0 -55z"/>
<path d="M709 2435 c0 -8 0 -37 0 -65 0 -96 -9 -87 91 -88 l90 0 1 39 c0 21 1
58 1 82 l1 42 -91 3 c-77 2 -92 0 -93 -13z"/>
<path d="M1173 2338 l2 -113 115 0 115 0 3 113 3 112 -120 0 -120 0 2 -112z"/>
<path d="M1631 2315 l-1 -135 144 0 144 0 0 135 0 135 -143 0 -142 0 -2 -135z"/>
<path d="M2091 2290 c0 -88 3 -161 7 -161 4 -1 85 -2 180 -3 l172 -1 0 162 0
163 -180 0 -179 0 0 -160z"/>
<path d="M690 1943 c-1 -36 -2 -168 -1 -183 1 -23 221 -23 222 0 0 8 1 56 2
105 l1 90 -112 3 c-102 2 -112 1 -112 -15z"/>
<path d="M1149 1923 c-1 -55 -1 -162 0 -203 l1 -36 138 1 137 0 2 138 2 137
-140 0 -139 0 -1 -37z"/>
<path d="M1609 1950 c0 -5 0 -66 0 -135 0 -69 0 -138 0 -154 l1 -29 170 0 170
0 0 164 0 164 -170 0 c-106 0 -170 -4 -171 -10z"/>
<path d="M2091 1795 l0 -166 180 2 179 2 0 164 0 163 -180 0 -180 0 1 -165z"/>
<path d="M1119 1450 c-1 -26 -1 -263 0 -292 1 -23 2 -23 166 -23 103 0 165 4
165 10 1 20 2 182 1 252 l-1 73 -165 -1 c-157 0 -165 -1 -166 -19z"/>
<path d="M1610 1306 l0 -163 170 -1 170 0 0 164 0 164 -170 -1 -170 0 0 -163z"/>
<path d="M2094 1456 c-2 -6 -3 -79 -2 -161 l3 -150 178 -1 177 -2 0 164 0 165
-176 -1 c-128 -1 -176 -5 -180 -14z"/>
<path d="M629 971 c0 -7 0 -233 0 -283 l1 -38 165 0 165 0 0 164 0 164 -165
-1 c-91 0 -165 -3 -166 -6z"/>
<path d="M1119 966 c0 -6 -1 -80 -2 -164 l-2 -152 168 0 167 0 1 35 c0 19 1
51 1 70 0 19 -1 77 -1 129 l-1 94 -165 0 c-117 0 -165 -3 -166 -12z"/>
<path d="M1609 952 c0 -15 -1 -89 -2 -164 l-2 -138 173 0 172 0 -2 163 -3 162
-167 2 -168 1 -1 -26z"/>
<path d="M2091 814 l-2 -164 181 0 180 0 0 164 0 164 -179 0 -179 0 -1 -164z"/>
<path d="M150 322 l0 -162 167 2 166 3 0 148 c-1 81 -2 153 -2 160 -1 9 -41
12 -166 12 l-165 0 0 -163z"/>
<path d="M641 482 c-7 -2 -11 -54 -11 -163 l0 -159 169 0 169 0 -2 162 -1 163
-156 0 c-86 1 -162 -1 -168 -3z"/>
<path d="M1119 475 c0 -5 -1 -77 -2 -160 l0 -150 169 -3 169 -2 -2 87 c-1 49
-2 122 -2 164 l-1 75 -165 0 c-102 -1 -165 -5 -166 -11z"/>
<path d="M1602 475 c-4 -5 -7 -81 -7 -167 l0 -158 170 0 171 0 -2 162 c-1 90
-2 165 -3 168 -2 11 -323 6 -329 -5z"/>
<path d="M2095 480 c-2 -3 -3 -76 -4 -163 l-1 -157 180 0 180 0 0 163 0 162
-176 0 c-97 0 -177 -2 -179 -5z"/>
</g>
</svg>
