<svg xmlns="http://www.w3.org/2000/svg" xmlns:xlink="http://www.w3.org/1999/xlink" style="display:none"><symbol id="arrow-down-left" viewBox="0 0 24 24"><path d="M18 22.6H6A4.6 4.6 0 011.4 18V6A4.6 4.6 0 016 1.4h12A4.6 4.6 0 0122.6 6v12a4.6 4.6 0 01-4.6 4.6zM6 3.4A2.61 2.61 0 003.4 6v12A2.61 2.61 0 006 20.6h12a2.61 2.61 0 002.6-2.6V6A2.61 2.61 0 0018 3.4zm8.5 13.14h-6a1.17 1.17 0 01-.38-.07 1 1 0 01-.33-.22 1 1 0 01-.21-.33.92.92 0 01-.08-.38v-6a1 1 0 012 0v3.59l4.79-4.8a1 1 0 111.42 1.42l-4.8 4.79h3.59a1 1 0 010 2z"/></symbol><symbol id="arrow-down-right" viewBox="0 0 24 24"><path d="M18 22.6H6A4.6 4.6 0 011.4 18V6A4.6 4.6 0 016 1.4h12A4.6 4.6 0 0122.6 6v12a4.6 4.6 0 01-4.6 4.6zM6 3.4A2.61 2.61 0 003.4 6v12A2.61 2.61 0 006 20.6h12a2.61 2.61 0 002.6-2.6V6A2.61 2.61 0 0018 3.4zm9.5 13.14h-6a1 1 0 010-2h3.59l-4.8-4.79a1 1 0 111.42-1.42l4.79 4.8V9.54a1 1 0 012 0v6a1 1 0 01-.07.35 1 1 0 01-.55.55 1 1 0 01-.36.07z"/></symbol><symbol id="arrow-up-left" viewBox="0 0 24 24"><path d="M18 22.6H6A4.6 4.6 0 011.4 18V6A4.6 4.6 0 016 1.4h12A4.6 4.6 0 0122.6 6v12a4.6 4.6 0 01-4.6 4.6zM6 3.4A2.61 2.61 0 003.4 6v12A2.61 2.61 0 006 20.6h12a2.61 2.61 0 002.6-2.6V6A2.61 2.61 0 0018 3.4zM15 16a1 1 0 01-.71-.29L9.5 11v3.58a1 1 0 01-2 0v-6a1 1 0 01.08-.38.91.91 0 01.2-.32 1.06 1.06 0 01.31-.21 1 1 0 01.39-.08h6a1 1 0 110 2h-3.57l4.8 4.79a1 1 0 010 1.42 1 1 0 01-.71.2z"/></symbol><symbol id="arrow-up-right" viewBox="0 0 24 24"><path d="M18 22.6H6A4.6 4.6 0 011.4 18V6A4.6 4.6 0 016 1.4h12A4.6 4.6 0 0122.6 6v12a4.6 4.6 0 01-4.6 4.6zM6 3.4A2.61 2.61 0 003.4 6v12A2.61 2.61 0 006 20.6h12a2.61 2.61 0 002.6-2.6V6A2.61 2.61 0 0018 3.4zM9 16a1 1 0 01-.71-.29 1 1 0 010-1.41l4.8-4.8H9.5a1 1 0 010-2h6a1 1 0 01.39.08 1.06 1.06 0 01.31.21.91.91 0 01.2.32 1 1 0 01.08.38v6a1 1 0 01-2 0V11l-4.77 4.75A1 1 0 019 16z"/></symbol><symbol id="award" viewBox="0 0 32 32"><g fill="none"><path d="M16 22c5.523 0 10-4.477 10-10S21.523 2 16 2 6 6.477 6 12s4.477 10 10 10z"/><path d="M16 18a6 6 0 100-12 6 6 0 000 12zM22 20v10l-6-3-6 3V20"/></g></symbol><symbol id="binoculars" viewBox="0 0 32 32"><g fill="none"><path d="M13 11.5h6M28.7 19.287L23.238 6.875a3.013 3.013 0 00-4.238 0V21M13 21V6.875a3.013 3.013 0 00-4.238 0L3.3 19.287"/><path d="M8 26a5 5 0 100-10 5 5 0 000 10zM24 26a5 5 0 100-10 5 5 0 000 10z"/></g></symbol><symbol id="box" viewBox="0 0 24 24"><g fill="none"><path d="M21.53 7.2H2.47M15 10.5H9m12.6-2.73V19.2a2.4 2.4 0 01-2.4 2.4H4.8a2.4 2.4 0 01-2.4-2.4V7.77c0-.38.09-.74.25-1.08L4.3 3.4c.3-.6.93-.99 1.61-.99H18.1c.68 0 1.3.39 1.6 1l1.66 3.3c.16.33.25.7.25 1.07z"/></g></symbol><symbol id="buildings" viewBox="0 0 24 24"><g fill="none"><path d="M1.5 20.25h21m-9 0V3.75a.75.75 0 00-.75-.75h-9a.75.75 0 00-.75.75v16.5m18 0V9.75a.75.75 0 00-.75-.75H13.5M6 6.75h3m-1.5 6h3M6 16.5h3m7.5 0H18m-1.5-3.75H18"/></g></symbol><symbol id="cable" viewBox="0 0 24 24"><g fill="none"><path d="M14 6V2m0 0h-4m4 0h4v14h-3M10 2H6v14h3m1-14v4M9 16v3h3m-3-3h6m0 0v3h-3m0 0v4"/></g></symbol><symbol id="cam" viewBox="0 0 24 24"><g fill="none"><path d="M12 6.21c-1.33 0-2.6.56-3.54 1.54A5.4 5.4 0 007 11.47v5.27c0 1.4.53 2.73 1.46 3.72a4.87 4.87 0 007.08 0A5.4 5.4 0 0017 16.74v-5.27a5.4 5.4 0 00-1.46-3.72A4.88 4.88 0 0012 6.21zm0 0V2M9 2h6m-3 13.68a1.05 1.05 0 011 1.06c0 .28-.1.54-.3.74-.18.2-.43.3-.7.3a.98.98 0 01-.7-.3 1.08 1.08 0 010-1.49c.18-.2.43-.3.7-.3z"/></g></symbol><symbol id="chat" viewBox="0 0 24 24"><g fill="none"><path d="M19.47 9.87v-4.8c0-1.18-.96-2.14-2.14-2.14H4.53c-1.17 0-2.13.96-2.13 2.14v8.34c0 1.18.96 2.14 2.13 2.14H6.2V20l4.46-4.45h.27m5.51 2.73l2.78 2.79v-2.79h.25c1.18 0 2.13-.95 2.13-2.13v-3.62c0-1.17-.95-2.13-2.13-2.13h-6.4c-1.18 0-2.14.96-2.14 2.13v3.62c0 1.18.96 2.13 2.14 2.13h3.37z"/></g></symbol><symbol id="chevron-down" viewBox="0 0 24 24"><path d="M12 15.52a1 1 0 01-.73-.31l-5-5a1 1 0 011.5-1.42L12 13l4.23-4.23a1 1 0 011.47 1.46l-5 5a1 1 0 01-.7.29z"/></symbol><symbol id="chevron-left" viewBox="0 0 24 24"><path d="M14.48 18a1 1 0 01-.73-.3l-5-5a1 1 0 010-1.46l5-5a1 1 0 011.46 1.47L11 12l4.23 4.23a1 1 0 010 1.47 1 1 0 01-.75.3z"/></symbol><symbol id="chevron-right" viewBox="0 0 24 24"><path d="M9.52 18a1 1 0 01-.73-.3 1 1 0 010-1.47L13 12 8.79 7.77a1 1 0 011.46-1.47l5 5a1 1 0 010 1.46l-5 5a1 1 0 01-.73.24z"/></symbol><symbol id="chevron-up" viewBox="0 0 24 24"><path d="M17 15.51a1.06 1.06 0 01-.74-.3L12 11l-4.23 4.21a1.05 1.05 0 01-1.47 0 1 1 0 010-1.46l5-5a1.06 1.06 0 011.46 0l5 5a1 1 0 010 1.46 1.06 1.06 0 01-.76.3z"/></symbol><symbol id="circlet" viewBox="0 0 24 24"><g fill="none"><path d="M3.58 21.6l7.37-12.89m2.63 0l6.84 12.89M4.36 14.76c1.93 2.9 4.76 4.74 7.9 4.74 3.15 0 5.98-1.84 7.9-4.74m-7.9-11.04a2.63 2.63 0 100 5.26 2.63 2.63 0 000-5.26zm0 0V2.4"/></g></symbol><symbol id="close" viewBox="0 0 24 24"><path d="M18.43 19.5a1.06 1.06 0 01-.76-.31L12 13.52l-5.67 5.67a1.07 1.07 0 01-1.52-1.52L10.48 12 4.81 6.33a1.07 1.07 0 011.52-1.52L12 10.48l5.67-5.67a1.07 1.07 0 011.52 1.52L13.52 12l5.67 5.67a1.09 1.09 0 010 1.52 1.07 1.07 0 01-.76.31z"/></symbol><symbol id="cloud" viewBox="0 0 24 24"><g fill="none"><path d="M14.74 18.86A6.86 6.86 0 108.4 9.4a4.8 4.8 0 10-1.2 9.45h7.55z"/></g></symbol><symbol id="facebook" viewBox="0 0 24 24"><path d="M12 2.06a10 10 0 00-1.56 19.88V15H7.9v-2.94h2.54v-2.2A3.52 3.52 0 0114.21 6a15.72 15.72 0 012.24.19v2.43h-1.26a1.45 1.45 0 00-1.63 1.56v1.88h2.77L15.89 15h-2.33v7A10 10 0 0012 2.06z"/></symbol><symbol id="file" viewBox="0 0 32 32"><g fill="none"><path d="M25 28H7a1 1 0 01-1-1V5a1 1 0 011-1h12l7 7v16a1 1 0 01-1 1z"/><path d="M19 4v7h7"/></g></symbol><symbol id="for-builders" viewBox="0 0 24 24"><g fill="none"><path d="M9.6 21.6H7.2A3.6 3.6 0 013.6 18V6a3.6 3.6 0 013.6-3.6h8.4A3.6 3.6 0 0119.2 6v3M15 7.2H7.2m4.2 3.6H7.2m2.4 3.6H7.2"/><path d="M17.18 18.24l1.66-1.4a1.1 1.1 0 00.14-1.53l-1.29-1.44a1.09 1.09 0 00-1.53-.13l-3.33 2.79a1.09 1.09 0 00-.13 1.53l1.28 1.44c.39.46 1.07.52 1.53.13l1.67-1.4zm0 0l2.25 2.59"/></g></symbol><symbol id="globe" viewBox="0 0 24 24"><path d="M12 1a11 11 0 1011 11A11 11 0 0012 1zM3.06 13H7a18.4 18.4 0 001.66 7.36A9 9 0 013.06 13zm4-2h-4a9 9 0 015.62-7.36A18.4 18.4 0 007 11zm5 10c-1.15 0-2.78-3.08-3-8h6c-.28 4.92-1.91 8-3.06 8zM9 11c.2-4.92 1.83-8 3-8s2.78 3.08 3 8zm6.3 9.36A18.4 18.4 0 0017 13h4a9 9 0 01-5.68 7.36zM17 11a18.4 18.4 0 00-1.66-7.36 9 9 0 015.6 7.36z"/></symbol><symbol id="home" viewBox="0 0 24 24"><path d="M19.68 22.6H4.32a2.88 2.88 0 01-2.92-2.83V9.24a2.22 2.22 0 011-1.82l8.3-5.62a2.32 2.32 0 012.6 0l8.32 5.62a2.2 2.2 0 011 1.82v10.53a2.88 2.88 0 01-2.94 2.83zM12 3.4a.37.37 0 00-.18.05L3.5 9.08a.2.2 0 00-.1.16v10.53a.88.88 0 00.92.83h15.36a.88.88 0 00.92-.83V9.24a.2.2 0 00-.1-.16l-8.32-5.63A.37.37 0 0012 3.4z"/></symbol><symbol id="instagram" viewBox="0 0 24 24"><path d="M20.94 8.29a6.47 6.47 0 00-.42-2.21 4.55 4.55 0 00-2.63-2.63A6.3 6.3 0 0015.71 3H8.29a6.31 6.31 0 00-2.19.42 4.57 4.57 0 00-2.63 2.66 6.54 6.54 0 00-.42 2.18C3 9.23 3 9.53 3 12s0 2.76.06 3.71a6.55 6.55 0 00.42 2.19 4.6 4.6 0 002.62 2.6 6.58 6.58 0 002.19.5H12c2.44 0 2.75 0 3.71-.06a6.3 6.3 0 002.18-.42 4.62 4.62 0 002.64-2.63 6.81 6.81 0 00.47-2.18c0-1 .05-1.26.05-3.71s-.05-2.75-.11-3.71zm-9 8.3A4.62 4.62 0 1116.61 12 4.62 4.62 0 0112 16.59zm4.86-8.34a1.08 1.08 0 111.07-1.08 1.08 1.08 0 01-1.07 1.08z"/><path d="M12 15a3 3 0 10-3-3 3 3 0 003 3z"/></symbol><symbol id="linkedin" viewBox="0 0 24 24"><path d="M20 3H4a1 1 0 00-1 1v16a1 1 0 001 1h16a1 1 0 001-1V4a1 1 0 00-1-1zM8.34 18.34H5.67V9.75h2.67zM7 8.57A1.55 1.55 0 118.55 7 1.55 1.55 0 017 8.57zm11.34 9.77h-2.67v-4.18c0-1 0-2.28-1.39-2.28s-1.6 1.09-1.6 2.21v4.25H10V9.75h2.56v1.17a2.82 2.82 0 012.52-1.39c2.71 0 3.21 1.78 3.21 4.1v4.71z"/></symbol><symbol id="menu"><g fill="none"><path d="M13.8 19.2H2.4M21.6 12H2.4m19.2-7.2H10.2"/></g></symbol><symbol id="quote" viewBox="0 0 24 24"><path d="M21.29 19h-2.45a1.74 1.74 0 01-1.71-1.75V12.6a2.13 2.13 0 00-2.23-2h-1.22A1.74 1.74 0 0112 8.85v-2.1A1.74 1.74 0 0113.68 5h1.22a7.87 7.87 0 018.1 7.6v4.65A1.74 1.74 0 0121.29 19zm-2.16-2H21v-4.4A5.87 5.87 0 0014.9 7H14v1.6h.93a4.12 4.12 0 014.23 4zm-8.81 2H7.88a1.74 1.74 0 01-1.72-1.75V12.6a2.13 2.13 0 00-2.22-2H2.71A1.74 1.74 0 011 8.85v-2.1A1.74 1.74 0 012.71 5h1.23A7.87 7.87 0 0112 12.6v4.65A1.74 1.74 0 0110.32 19zm-2.16-2H10v-4.4A5.86 5.86 0 003.94 7H3v1.6h.94a4.11 4.11 0 014.22 4z"/></symbol><symbol id="search" viewBox="0 0 24 24"><path d="M20.4 21.4a1 1 0 01-.7-.28l-2.81-2.72a8.94 8.94 0 111.42-1.4l2.78 2.69a1 1 0 01-.69 1.72zm-9-16.8a6.84 6.84 0 106.84 6.84 6.85 6.85 0 00-6.8-6.84z"/></symbol><symbol id="shield-check" viewBox="0 0 24 24"><g fill="none"><path d="M9.6 11.19l1.8 1.8 3.6-3.6M4.8 5.79l5.59-2.8a3.6 3.6 0 013.22 0l5.59 2.8v8.03c0 2.77-2.56 4.64-7.2 7.57-4.64-2.93-7.2-5.4-7.2-7.57V5.79z"/></g></symbol><symbol id="telegram" viewBox="0 0 24 24"><path d="M21.75 12A9.75 9.75 0 1112 2.25 9.76 9.76 0 0121.75 12zm-12.86-.9c-.92.42-1.87.84-2.73 1.34-.45.34.15.58.71.81l.26.11.21.06a2.36 2.36 0 001.94.09c1-.59 1.94-1.28 2.88-2l.93-.67c.27-.17.86-.57.64 0a22.79 22.79 0 01-1.63 1.63c-.38.36-.76.71-1.13 1.09s-.66.81-.3 1.19c.83.6 1.68 1.19 2.52 1.78l.82.57a.83.83 0 001.3-.52c0-.28.09-.56.13-.83.25-1.52.51-3.05.73-4.58 0-.24.06-.48.1-.72.08-.58.16-1.16.19-1.74s-.75-.46-1.13-.33c-2 .77-3.89 1.6-5.82 2.44z" fill-rule="evenodd"/></symbol><symbol id="users" viewBox="0 0 24 24"><path d="M12.51 15c-.21-.11-.43-.2-.65-.29a5.87 5.87 0 10-8.24-1 6.15 6.15 0 001 1c-.22.09-.44.18-.65.29a9.23 9.23 0 00-3.29 2.93 1 1 0 001.63 1.16 7.22 7.22 0 012.59-2.26 7.35 7.35 0 016.68 0 7.22 7.22 0 012.59 2.26 1 1 0 001.64-1.15 9.23 9.23 0 00-3.3-2.94zm-4.26-1a3.88 3.88 0 113.87-3.89A3.88 3.88 0 018.25 14z"/><path d="M23.46 17.93a9.3 9.3 0 00-3.3-2.93c-.22-.11-.44-.2-.65-.29.18-.15.36-.3.53-.47a5.87 5.87 0 00-4.15-10 6 6 0 00-1.58.21 1 1 0 00.45 2h.07a4 4 0 013.8 1 3.83 3.83 0 011.14 2.73A3.88 3.88 0 0115.9 14h-.14a.7.7 0 00-.25.05 1 1 0 00-.62.92.93.93 0 00.07.33v.06l.08.12a1 1 0 00.84.49 7.29 7.29 0 015.92 3.08 1 1 0 001.66-1.12z"/></symbol><symbol id="wavy-check" viewBox="0 0 32 32"><g fill="none"><path d="M6.813 25.188c-1.15-1.15-.388-3.563-.975-4.976C5.25 18.8 3 17.563 3 16c0-1.563 2.225-2.75 2.838-4.213.612-1.462-.176-3.825.974-4.975 1.15-1.15 3.563-.387 4.975-.974C13.2 5.25 14.438 3 16 3c1.563 0 2.75 2.225 4.212 2.838 1.463.612 3.826-.176 4.976.974s.387 3.563.975 4.975C26.75 13.2 29 14.438 29 16c0 1.563-2.225 2.75-2.837 4.212-.613 1.463.174 3.826-.976 4.976s-3.562.387-4.975.975C18.8 26.75 17.563 29 16 29c-1.563 0-2.75-2.225-4.213-2.837-1.462-.613-3.825.174-4.975-.976z"/><path d="M21.5 13l-7.338 7-3.662-3.5"/></g></symbol><symbol id="wifi" viewBox="0 0 24 24"><path d="M5.61 12.2c3.53-3.5 9.25-3.5 12.78 0M8.81 15.37c1.76-1.75 4.62-1.75 6.39 0M2.4 9.4c5.3-5.26 13.9-5.26 19.2 0" fill="none"/><circle cx="12.02" cy="18.53" r=".13" fill="none"/></symbol></svg>