<svg xmlns="http://www.w3.org/2000/svg" xmlns:xlink="http://www.w3.org/1999/xlink" style="display:none"><symbol id="arrow-down-left" viewBox="0 0 24 24"><path d="M18 22.6H6A4.6 4.6 0 011.4 18V6A4.6 4.6 0 016 1.4h12A4.6 4.6 0 0122.6 6v12a4.6 4.6 0 01-4.6 4.6zM6 3.4A2.61 2.61 0 003.4 6v12A2.61 2.61 0 006 20.6h12a2.61 2.61 0 002.6-2.6V6A2.61 2.61 0 0018 3.4zm8.5 13.14h-6a1.17 1.17 0 01-.38-.07 1 1 0 01-.33-.22 1 1 0 01-.21-.33.92.92 0 01-.08-.38v-6a1 1 0 012 0v3.59l4.79-4.8a1 1 0 111.42 1.42l-4.8 4.79h3.59a1 1 0 010 2z"/></symbol><symbol id="arrow-down-right" viewBox="0 0 24 24"><path d="M18 22.6H6A4.6 4.6 0 011.4 18V6A4.6 4.6 0 016 1.4h12A4.6 4.6 0 0122.6 6v12a4.6 4.6 0 01-4.6 4.6zM6 3.4A2.61 2.61 0 003.4 6v12A2.61 2.61 0 006 20.6h12a2.61 2.61 0 002.6-2.6V6A2.61 2.61 0 0018 3.4zm9.5 13.14h-6a1 1 0 010-2h3.59l-4.8-4.79a1 1 0 111.42-1.42l4.79 4.8V9.54a1 1 0 012 0v6a1 1 0 01-.07.35 1 1 0 01-.55.55 1 1 0 01-.36.07z"/></symbol><symbol id="arrow-up-left" viewBox="0 0 24 24"><path d="M18 22.6H6A4.6 4.6 0 011.4 18V6A4.6 4.6 0 016 1.4h12A4.6 4.6 0 0122.6 6v12a4.6 4.6 0 01-4.6 4.6zM6 3.4A2.61 2.61 0 003.4 6v12A2.61 2.61 0 006 20.6h12a2.61 2.61 0 002.6-2.6V6A2.61 2.61 0 0018 3.4zM15 16a1 1 0 01-.71-.29L9.5 11v3.58a1 1 0 01-2 0v-6a1 1 0 01.08-.38.91.91 0 01.2-.32 1.06 1.06 0 01.31-.21 1 1 0 01.39-.08h6a1 1 0 110 2h-3.57l4.8 4.79a1 1 0 010 1.42 1 1 0 01-.71.2z"/></symbol><symbol id="arrow-up-right" viewBox="0 0 24 24"><path d="M18 22.6H6A4.6 4.6 0 011.4 18V6A4.6 4.6 0 016 1.4h12A4.6 4.6 0 0122.6 6v12a4.6 4.6 0 01-4.6 4.6zM6 3.4A2.61 2.61 0 003.4 6v12A2.61 2.61 0 006 20.6h12a2.61 2.61 0 002.6-2.6V6A2.61 2.61 0 0018 3.4zM9 16a1 1 0 01-.71-.29 1 1 0 010-1.41l4.8-4.8H9.5a1 1 0 010-2h6a1 1 0 01.39.08 1.06 1.06 0 01.31.21.91.91 0 01.2.32 1 1 0 01.08.38v6a1 1 0 01-2 0V11l-4.77 4.75A1 1 0 019 16z"/></symbol><symbol id="award" viewBox="0 0 24 24"><path d="M20.5 9a8.5 8.5 0 10-14 6.47v7a1 1 0 001.5.92l4.05-2 4.05 2a1 1 0 00.45.11 1 1 0 00.53-.15 1 1 0 00.47-.85v-7A8.49 8.49 0 0020.5 9zm-15 0a6.5 6.5 0 116.5 6.5A6.51 6.51 0 015.5 9zm10 11.88l-3.05-1.52a1 1 0 00-.9 0L8.5 20.88v-4.14a8.44 8.44 0 007 0z"/><path d="M12 14.5A5.5 5.5 0 106.5 9a5.51 5.51 0 005.5 5.5zm0-9A3.5 3.5 0 118.5 9 3.5 3.5 0 0112 5.5z"/></symbol><symbol id="binoculars" viewBox="0 0 24 24"><path d="M22.5 14.21v-.16l-.05-.11v-.11l-4-9.11a1.34 1.34 0 00-.22-.31 3.36 3.36 0 00-4.59 0 1 1 0 00-.3.72V7.6h-2.5V5.13a1 1 0 00-.3-.72 3.36 3.36 0 00-4.54 0 1 1 0 00-.22.31l-4 9.11v.11l-.05.11v.16a5 5 0 00-.27 1.53 4.76 4.76 0 009.52 0V9.6h2.5v6.14a4.76 4.76 0 109.52 0 4.82 4.82 0 00-.5-1.53zM7.39 5.73a1.29 1.29 0 011.35-.11v6.25A4.72 4.72 0 006 11a4.19 4.19 0 00-1 .1zM6 18.5a2.78 2.78 0 01-2.76-2.76 2.87 2.87 0 01.2-1v-.11a2.75 2.75 0 015.26 1.13A2.76 2.76 0 016 18.5zm9.26-12.88a1.29 1.29 0 011.35.11L19 11.08a4.18 4.18 0 00-1-.08 4.68 4.68 0 00-2.75.89zM18 18.5a2.76 2.76 0 112.51-3.89v.11a2.87 2.87 0 01.2 1A2.77 2.77 0 0118 18.5z"/></symbol><symbol id="chevron-down" viewBox="0 0 24 24"><path d="M12 15.52a1 1 0 01-.73-.31l-5-5a1 1 0 011.5-1.42L12 13l4.23-4.23a1 1 0 011.47 1.46l-5 5a1 1 0 01-.7.29z"/></symbol><symbol id="chevron-left" viewBox="0 0 24 24"><path d="M14.48 18a1 1 0 01-.73-.3l-5-5a1 1 0 010-1.46l5-5a1 1 0 011.46 1.47L11 12l4.23 4.23a1 1 0 010 1.47 1 1 0 01-.75.3z"/></symbol><symbol id="chevron-right" viewBox="0 0 24 24"><path d="M9.52 18a1 1 0 01-.73-.3 1 1 0 010-1.47L13 12 8.79 7.77a1 1 0 011.46-1.47l5 5a1 1 0 010 1.46l-5 5a1 1 0 01-.73.24z"/></symbol><symbol id="chevron-up" viewBox="0 0 24 24"><path d="M17 15.51a1.06 1.06 0 01-.74-.3L12 11l-4.23 4.21a1.05 1.05 0 01-1.47 0 1 1 0 010-1.46l5-5a1.06 1.06 0 011.46 0l5 5a1 1 0 010 1.46 1.06 1.06 0 01-.76.3z"/></symbol><symbol id="close" viewBox="0 0 24 24"><path d="M18.43 19.5a1.06 1.06 0 01-.76-.31L12 13.52l-5.67 5.67a1.07 1.07 0 01-1.52-1.52L10.48 12 4.81 6.33a1.07 1.07 0 011.52-1.52L12 10.48l5.67-5.67a1.07 1.07 0 011.52 1.52L13.52 12l5.67 5.67a1.09 1.09 0 010 1.52 1.07 1.07 0 01-.76.31z"/></symbol><symbol id="file" viewBox="0 0 24 24"><path d="M20.42 7.87a1 1 0 00-.21-.33L15 2.29a1 1 0 00-.32-.21 1.06 1.06 0 00-.43-.08h-9A1.74 1.74 0 003.5 3.73v16.52a1.71 1.71 0 00.5 1.24 1.76 1.76 0 001.25.51h13.5a1.74 1.74 0 001.75-1.73v-12a1 1 0 00-.08-.4zm-5.17-2.46l1.84 1.84h-1.84zM5.5 20V4h7.75v4.25a1 1 0 001 1h4.25V20z"/></symbol><symbol id="home" viewBox="0 0 24 24"><path d="M19.68 22.6H4.32a2.88 2.88 0 01-2.92-2.83V9.24a2.22 2.22 0 011-1.82l8.3-5.62a2.32 2.32 0 012.6 0l8.32 5.62a2.2 2.2 0 011 1.82v10.53a2.88 2.88 0 01-2.94 2.83zM12 3.4a.37.37 0 00-.18.05L3.5 9.08a.2.2 0 00-.1.16v10.53a.88.88 0 00.92.83h15.36a.88.88 0 00.92-.83V9.24a.2.2 0 00-.1-.16l-8.32-5.63A.37.37 0 0012 3.4z"/></symbol><symbol id="menu" viewBox="0 0 24 24"><path d="M13.8 20.2H2.4a1 1 0 110-2h11.4a1 1 0 010 2zm7.8-7.2H2.4a1 1 0 010-2h19.2a1 1 0 010 2zm0-7.2H10.2a1 1 0 010-2h11.4a1 1 0 010 2z"/></symbol><symbol id="search" viewBox="0 0 24 24"><path d="M20.4 21.4a1 1 0 01-.7-.28l-2.81-2.72a8.94 8.94 0 111.42-1.4l2.78 2.69a1 1 0 01-.69 1.72zm-9-16.8a6.84 6.84 0 106.84 6.84 6.85 6.85 0 00-6.8-6.84z"/></symbol><symbol id="upload" viewBox="0 0 24 24"><path d="M12 22a1 1 0 01-1-1v-9.62l-3.11 3a1 1 0 01-1.38-1.44l4.79-4.62a1.26 1.26 0 01.28-.19A1.21 1.21 0 0112 8a1.07 1.07 0 01.32.07h.05a1.07 1.07 0 01.28.19l4.8 4.59a1 1 0 01-1.38 1.44l-3.11-3V21a1 1 0 01-.96 1zM4.22 4.58a1 1 0 01-.71-.29 1 1 0 010-1.42A3 3 0 015.7 2h12.6a3.09 3.09 0 012.2.91 1 1 0 010 1.42 1 1 0 01-1.41 0A1.1 1.1 0 0018.3 4H5.7a1.06 1.06 0 00-.77.32 1 1 0 01-.71.26z"/></symbol><symbol id="users" viewBox="0 0 24 24"><path d="M12.51 15c-.21-.11-.43-.2-.65-.29a5.87 5.87 0 10-8.24-1 6.15 6.15 0 001 1c-.22.09-.44.18-.65.29a9.23 9.23 0 00-3.29 2.93 1 1 0 001.63 1.16 7.22 7.22 0 012.59-2.26 7.35 7.35 0 016.68 0 7.22 7.22 0 012.59 2.26 1 1 0 001.64-1.15 9.23 9.23 0 00-3.3-2.94zm-4.26-1a3.88 3.88 0 113.87-3.89A3.88 3.88 0 018.25 14z"/><path d="M23.46 17.93a9.3 9.3 0 00-3.3-2.93c-.22-.11-.44-.2-.65-.29.18-.15.36-.3.53-.47a5.87 5.87 0 00-4.15-10 6 6 0 00-1.58.21 1 1 0 00.45 2h.07a4 4 0 013.8 1 3.83 3.83 0 011.14 2.73A3.88 3.88 0 0115.9 14h-.14a.7.7 0 00-.25.05 1 1 0 00-.62.92.93.93 0 00.07.33v.06l.08.12a1 1 0 00.84.49 7.29 7.29 0 015.92 3.08 1 1 0 001.66-1.12z"/></symbol><symbol id="wavy-check" viewBox="0 0 24 24"><path d="M12 22.75a3.78 3.78 0 01-2.54-1.4 4.4 4.4 0 00-1-.81 4.32 4.32 0 00-1.24-.13 3.8 3.8 0 01-2.82-.81 3.87 3.87 0 01-.82-2.84 4.13 4.13 0 00-.13-1.22 4 4 0 00-.78-1A3.88 3.88 0 011.25 12a3.78 3.78 0 011.4-2.54 4.4 4.4 0 00.81-1 4.32 4.32 0 00.13-1.24A3.8 3.8 0 014.4 4.4a3.87 3.87 0 012.84-.82 4.13 4.13 0 001.22-.13 4 4 0 001-.78A3.88 3.88 0 0112 1.25a3.78 3.78 0 012.54 1.4 4.6 4.6 0 001 .81 4.44 4.44 0 001.25.13 3.8 3.8 0 012.81.81 3.87 3.87 0 01.82 2.84 4.13 4.13 0 00.13 1.22 4 4 0 00.78 1A3.88 3.88 0 0122.75 12a3.78 3.78 0 01-1.4 2.54 4.6 4.6 0 00-.81 1 4.44 4.44 0 00-.13 1.25 3.8 3.8 0 01-.81 2.81 3.87 3.87 0 01-2.84.82 4.09 4.09 0 00-1.22.13 4 4 0 00-1 .78A3.88 3.88 0 0112 22.75zm0-19.5c-.28 0-.8.5-1.19.86A5.26 5.26 0 019.22 5.3a5.13 5.13 0 01-2 .28c-.58 0-1.23 0-1.45.24s-.23.85-.23 1.41a5.34 5.34 0 01-.29 2 5.29 5.29 0 01-1.21 1.61c-.37.4-.84.88-.84 1.16s.5.8.86 1.18a5.43 5.43 0 011.19 1.6 5.13 5.13 0 01.28 2c0 .58 0 1.23.24 1.45s.85.23 1.41.23a5.34 5.34 0 012 .29 5.29 5.29 0 011.61 1.21c.4.37.88.84 1.16.84s.8-.5 1.18-.86a5.43 5.43 0 011.6-1.19 5.11 5.11 0 011.94-.28c.59 0 1.24 0 1.46-.24s.23-.85.23-1.41a5.34 5.34 0 01.29-2 5.29 5.29 0 011.21-1.61c.37-.4.84-.88.84-1.16s-.5-.8-.86-1.19a5.26 5.26 0 01-1.14-1.64 5.11 5.11 0 01-.28-1.94c0-.59 0-1.24-.24-1.46s-.85-.23-1.41-.23a5.34 5.34 0 01-2-.29 5.29 5.29 0 01-1.61-1.21c-.4-.37-.88-.84-1.16-.84z"/><path d="M10.62 16a1 1 0 01-.69-.28L7.18 13.1a1 1 0 111.39-1.45l2 2L15.43 9a1 1 0 111.39 1.44l-5.51 5.25a1 1 0 01-.69.31z"/></symbol></svg>