<svg xmlns="http://www.w3.org/2000/svg" xmlns:xlink="http://www.w3.org/1999/xlink" style="display:none"><symbol id="arrow-down-left" viewBox="0 0 24 24"><path d="M18 22.6H6A4.6 4.6 0 011.4 18V6A4.6 4.6 0 016 1.4h12A4.6 4.6 0 0122.6 6v12a4.6 4.6 0 01-4.6 4.6zM6 3.4A2.61 2.61 0 003.4 6v12A2.61 2.61 0 006 20.6h12a2.61 2.61 0 002.6-2.6V6A2.61 2.61 0 0018 3.4zm8.5 13.14h-6a1.17 1.17 0 01-.38-.07 1 1 0 01-.33-.22 1 1 0 01-.21-.33.92.92 0 01-.08-.38v-6a1 1 0 012 0v3.59l4.79-4.8a1 1 0 111.42 1.42l-4.8 4.79h3.59a1 1 0 010 2z"/></symbol><symbol id="arrow-down-right" viewBox="0 0 24 24"><path d="M18 22.6H6A4.6 4.6 0 011.4 18V6A4.6 4.6 0 016 1.4h12A4.6 4.6 0 0122.6 6v12a4.6 4.6 0 01-4.6 4.6zM6 3.4A2.61 2.61 0 003.4 6v12A2.61 2.61 0 006 20.6h12a2.61 2.61 0 002.6-2.6V6A2.61 2.61 0 0018 3.4zm9.5 13.14h-6a1 1 0 010-2h3.59l-4.8-4.79a1 1 0 111.42-1.42l4.79 4.8V9.54a1 1 0 012 0v6a1 1 0 01-.07.35 1 1 0 01-.55.55 1 1 0 01-.36.07z"/></symbol><symbol id="arrow-up-left" viewBox="0 0 24 24"><path d="M18 22.6H6A4.6 4.6 0 011.4 18V6A4.6 4.6 0 016 1.4h12A4.6 4.6 0 0122.6 6v12a4.6 4.6 0 01-4.6 4.6zM6 3.4A2.61 2.61 0 003.4 6v12A2.61 2.61 0 006 20.6h12a2.61 2.61 0 002.6-2.6V6A2.61 2.61 0 0018 3.4zM15 16a1 1 0 01-.71-.29L9.5 11v3.58a1 1 0 01-2 0v-6a1 1 0 01.08-.38.91.91 0 01.2-.32 1.06 1.06 0 01.31-.21 1 1 0 01.39-.08h6a1 1 0 110 2h-3.57l4.8 4.79a1 1 0 010 1.42 1 1 0 01-.71.2z"/></symbol><symbol id="arrow-up-right" viewBox="0 0 24 24"><path d="M18 22.6H6A4.6 4.6 0 011.4 18V6A4.6 4.6 0 016 1.4h12A4.6 4.6 0 0122.6 6v12a4.6 4.6 0 01-4.6 4.6zM6 3.4A2.61 2.61 0 003.4 6v12A2.61 2.61 0 006 20.6h12a2.61 2.61 0 002.6-2.6V6A2.61 2.61 0 0018 3.4zM9 16a1 1 0 01-.71-.29 1 1 0 010-1.41l4.8-4.8H9.5a1 1 0 010-2h6a1 1 0 01.39.08 1.06 1.06 0 01.31.21.91.91 0 01.2.32 1 1 0 01.08.38v6a1 1 0 01-2 0V11l-4.77 4.75A1 1 0 019 16z"/></symbol><symbol id="award" viewBox="0 0 24 24"><path d="M20.5 9a8.5 8.5 0 10-14 6.47v7a1 1 0 001.5.92l4.05-2 4.05 2a1 1 0 00.45.11 1 1 0 00.53-.15 1 1 0 00.47-.85v-7A8.49 8.49 0 0020.5 9zm-15 0a6.5 6.5 0 116.5 6.5A6.51 6.51 0 015.5 9zm10 11.88l-3.05-1.52a1 1 0 00-.9 0L8.5 20.88v-4.14a8.44 8.44 0 007 0z"/><path d="M12 14.5A5.5 5.5 0 106.5 9a5.51 5.51 0 005.5 5.5zm0-9A3.5 3.5 0 118.5 9 3.5 3.5 0 0112 5.5z"/></symbol><symbol id="binoculars" viewBox="0 0 24 24"><path d="M22.5 14.21v-.16l-.05-.11v-.11l-4-9.11a1.34 1.34 0 00-.22-.31 3.36 3.36 0 00-4.59 0 1 1 0 00-.3.72V7.6h-2.5V5.13a1 1 0 00-.3-.72 3.36 3.36 0 00-4.54 0 1 1 0 00-.22.31l-4 9.11v.11l-.05.11v.16a5 5 0 00-.27 1.53 4.76 4.76 0 009.52 0V9.6h2.5v6.14a4.76 4.76 0 109.52 0 4.82 4.82 0 00-.5-1.53zM7.39 5.73a1.29 1.29 0 011.35-.11v6.25A4.72 4.72 0 006 11a4.19 4.19 0 00-1 .1zM6 18.5a2.78 2.78 0 01-2.76-2.76 2.87 2.87 0 01.2-1v-.11a2.75 2.75 0 015.26 1.13A2.76 2.76 0 016 18.5zm9.26-12.88a1.29 1.29 0 011.35.11L19 11.08a4.18 4.18 0 00-1-.08 4.68 4.68 0 00-2.75.89zM18 18.5a2.76 2.76 0 112.51-3.89v.11a2.87 2.87 0 01.2 1A2.77 2.77 0 0118 18.5z"/></symbol><symbol id="box" viewBox="0 0 24 24"><path d="M19.2 22.6H4.8a3.41 3.41 0 01-3.4-3.4V7.77A3.16 3.16 0 011.49 7a.29.29 0 010-.09 3.18 3.18 0 01.25-.67L3.41 3a2.78 2.78 0 012.5-1.6h12.18a2.78 2.78 0 012.5 1.6l1.65 3.3a3.38 3.38 0 01.26.69V7a3.33 3.33 0 01.09.78V19.2a3.4 3.4 0 01-3.39 3.4zM3.4 8.2v11a1.4 1.4 0 001.4 1.4h14.4a1.4 1.4 0 001.4-1.4v-11zm.6-2h16l-1.2-2.36a.79.79 0 00-.71-.44H5.91a.79.79 0 00-.71.44zm11 5.3H9a1 1 0 010-2h6a1 1 0 010 2z"/></symbol><symbol id="buildings" viewBox="0 0 24 24"><path d="M22.5 19.62H22v-9.5a1.76 1.76 0 00-.51-1.23 1.74 1.74 0 00-1.24-.51H14.5V4.12a1.74 1.74 0 00-1.75-1.74h-9A1.74 1.74 0 002 4.12v15.5h-.5a1 1 0 000 2h21a1 1 0 000-2zM20 10.38v9.24h-5.5v-9.24zm-16-6h8.5v15.24H4z"/><path d="M6 8.12h3a1 1 0 100-2H6a1 1 0 000 2zM10.5 12.12h-3a1 1 0 100 2h3a1 1 0 000-2zM9 15.88H6a1 1 0 000 2h3a1 1 0 100-2zM18 15.88h-1.5a1 1 0 000 2H18a1 1 0 100-2zM16.5 14.12H18a1 1 0 000-2h-1.5a1 1 0 000 2z"/></symbol><symbol id="cable" viewBox="0 0 24 24"><path d="M10 1H5v16h3v3h3v3h2v-3h3v-3h3V1zm4 17h-4v-1h4zm3-3H7V3h2v3h2V3h2v3h2V3h2z"/></symbol><symbol id="cam" viewBox="0 0 24 24"><path d="M12 23a5.9 5.9 0 01-4.26-1.85A6.38 6.38 0 016 16.74v-5.27a6.38 6.38 0 011.74-4.41A5.93 5.93 0 0111 5.3V3H9a1 1 0 010-2h6a1 1 0 010 2h-2v2.3a5.93 5.93 0 013.26 1.76A6.38 6.38 0 0118 11.47v5.27a6.38 6.38 0 01-1.74 4.41A5.9 5.9 0 0112 23zm0-15.79a3.86 3.86 0 00-2.81 1.23 4.42 4.42 0 00-1.19 3v5.27a4.42 4.42 0 001.19 3 3.82 3.82 0 005.62 0 4.42 4.42 0 001.19-3v-5.24a4.42 4.42 0 00-1.19-3A3.86 3.86 0 0012 7.21zm0 11.58a2 2 0 01-1.43-.62 2 2 0 01-.57-1.43 2.08 2.08 0 01.57-1.44 2 2 0 012.86 0 2.08 2.08 0 01.57 1.44 2 2 0 01-.57 1.43 2 2 0 01-1.43.62z"/></symbol><symbol id="chat" viewBox="0 0 24 24"><path d="M19.22 22.07a1 1 0 01-.7-.3L16 19.28h-3a3.14 3.14 0 01-2.87-1.86l-3.22 3.29A1 1 0 015.2 20v-3.45h-.67a3.14 3.14 0 01-3.13-3.14V5.07a3.14 3.14 0 013.13-3.14h12.8a3.15 3.15 0 013.14 3.14v4.49a3.13 3.13 0 012.13 3v3.62a3.13 3.13 0 01-2.38 3v1.88a1 1 0 01-.61.92 1.09 1.09 0 01-.39.09zm-7.29-6.52v.6a1.13 1.13 0 001.14 1.13h3.37a1 1 0 01.71.3l1.07 1.07v-.37a1 1 0 011-1h.25a1.13 1.13 0 001.13-1.13v-3.62a1.14 1.14 0 00-1.13-1.13h-6.4a1.14 1.14 0 00-1.14 1.13zM4.53 3.93A1.14 1.14 0 003.4 5.07v8.34a1.14 1.14 0 001.13 1.14H6.2a1 1 0 011 1v2l2.73-2.73v-2.29a3.14 3.14 0 013.14-3.13h5.4V5.07a1.14 1.14 0 00-1.14-1.14z"/></symbol><symbol id="chevron-down" viewBox="0 0 24 24"><path d="M12 15.52a1 1 0 01-.73-.31l-5-5a1 1 0 011.5-1.42L12 13l4.23-4.23a1 1 0 011.47 1.46l-5 5a1 1 0 01-.7.29z"/></symbol><symbol id="chevron-left" viewBox="0 0 24 24"><path d="M14.48 18a1 1 0 01-.73-.3l-5-5a1 1 0 010-1.46l5-5a1 1 0 011.46 1.47L11 12l4.23 4.23a1 1 0 010 1.47 1 1 0 01-.75.3z"/></symbol><symbol id="chevron-right" viewBox="0 0 24 24"><path d="M9.52 18a1 1 0 01-.73-.3 1 1 0 010-1.47L13 12 8.79 7.77a1 1 0 011.46-1.47l5 5a1 1 0 010 1.46l-5 5a1 1 0 01-.73.24z"/></symbol><symbol id="chevron-up" viewBox="0 0 24 24"><path d="M17 15.51a1.06 1.06 0 01-.74-.3L12 11l-4.23 4.21a1.05 1.05 0 01-1.47 0 1 1 0 010-1.46l5-5a1.06 1.06 0 011.46 0l5 5a1 1 0 010 1.46 1.06 1.06 0 01-.76.3z"/></symbol><symbol id="close" viewBox="0 0 24 24"><path d="M18.43 19.5a1.06 1.06 0 01-.76-.31L12 13.52l-5.67 5.67a1.07 1.07 0 01-1.52-1.52L10.48 12 4.81 6.33a1.07 1.07 0 011.52-1.52L12 10.48l5.67-5.67a1.07 1.07 0 011.52 1.52L13.52 12l5.67 5.67a1.09 1.09 0 010 1.52 1.07 1.07 0 01-.76.31z"/></symbol><symbol id="cloud" viewBox="0 0 24 24"><path d="M14.74 19.86H7.2a5.8 5.8 0 010-11.6 6.08 6.08 0 01.61 0 7.86 7.86 0 116.93 11.57zm-7.54-9.6a3.8 3.8 0 000 7.6h7.54a5.86 5.86 0 10-5.42-8.08 1 1 0 01-1.18.6 3.67 3.67 0 00-.94-.12z"/></symbol><symbol id="file" viewBox="0 0 24 24"><path d="M20.42 7.87a1 1 0 00-.21-.33L15 2.29a1 1 0 00-.32-.21 1.06 1.06 0 00-.43-.08h-9A1.74 1.74 0 003.5 3.73v16.52a1.71 1.71 0 00.5 1.24 1.76 1.76 0 001.25.51h13.5a1.74 1.74 0 001.75-1.73v-12a1 1 0 00-.08-.4zm-5.17-2.46l1.84 1.84h-1.84zM5.5 20V4h7.75v4.25a1 1 0 001 1h4.25V20z"/></symbol><symbol id="globe" viewBox="0 0 24 24"><path d="M12 1a11 11 0 1011 11A11 11 0 0012 1zM3.06 13H7a18.4 18.4 0 001.66 7.36A9 9 0 013.06 13zm4-2h-4a9 9 0 015.62-7.36A18.4 18.4 0 007 11zm5 10c-1.15 0-2.78-3.08-3-8h6c-.28 4.92-1.91 8-3.06 8zM9 11c.2-4.92 1.83-8 3-8s2.78 3.08 3 8zm6.3 9.36A18.4 18.4 0 0017 13h4a9 9 0 01-5.68 7.36zM17 11a18.4 18.4 0 00-1.66-7.36 9 9 0 015.6 7.36z"/></symbol><symbol id="home" viewBox="0 0 24 24"><path d="M19.68 22.6H4.32a2.88 2.88 0 01-2.92-2.83V9.24a2.22 2.22 0 011-1.82l8.3-5.62a2.32 2.32 0 012.6 0l8.32 5.62a2.2 2.2 0 011 1.82v10.53a2.88 2.88 0 01-2.94 2.83zM12 3.4a.37.37 0 00-.18.05L3.5 9.08a.2.2 0 00-.1.16v10.53a.88.88 0 00.92.83h15.36a.88.88 0 00.92-.83V9.24a.2.2 0 00-.1-.16l-8.32-5.63A.37.37 0 0012 3.4z"/></symbol><symbol id="menu" viewBox="0 0 24 24"><path d="M13.8 20.2H2.4a1 1 0 110-2h11.4a1 1 0 010 2zm7.8-7.2H2.4a1 1 0 010-2h19.2a1 1 0 010 2zm0-7.2H10.2a1 1 0 010-2h11.4a1 1 0 010 2z"/></symbol><symbol id="quote" viewBox="0 0 24 24"><path d="M21.29 19h-2.45a1.74 1.74 0 01-1.71-1.75V12.6a2.13 2.13 0 00-2.23-2h-1.22A1.74 1.74 0 0112 8.85v-2.1A1.74 1.74 0 0113.68 5h1.22a7.87 7.87 0 018.1 7.6v4.65A1.74 1.74 0 0121.29 19zm-2.16-2H21v-4.4A5.87 5.87 0 0014.9 7H14v1.6h.93a4.12 4.12 0 014.23 4zm-8.81 2H7.88a1.74 1.74 0 01-1.72-1.75V12.6a2.13 2.13 0 00-2.22-2H2.71A1.74 1.74 0 011 8.85v-2.1A1.74 1.74 0 012.71 5h1.23A7.87 7.87 0 0112 12.6v4.65A1.74 1.74 0 0110.32 19zm-2.16-2H10v-4.4A5.86 5.86 0 003.94 7H3v1.6h.94a4.11 4.11 0 014.22 4z"/></symbol><symbol id="search" viewBox="0 0 24 24"><path d="M20.4 21.4a1 1 0 01-.7-.28l-2.81-2.72a8.94 8.94 0 111.42-1.4l2.78 2.69a1 1 0 01-.69 1.72zm-9-16.8a6.84 6.84 0 106.84 6.84 6.85 6.85 0 00-6.8-6.84z"/></symbol><symbol id="shield-check" viewBox="0 0 24 24"><path d="M12 22.39a1 1 0 01-.53-.16c-5.31-3.35-7.67-5.94-7.67-8.42v-8a1 1 0 01.55-.9L9.94 2.1a4.6 4.6 0 014.12 0l5.59 2.79a1 1 0 01.55.9v8c0 3.34-2.9 5.41-7.67 8.42a1 1 0 01-.53.18zM5.8 6.4v7.41c0 1.58 2.09 3.73 6.2 6.39 4.37-2.78 6.2-4.34 6.2-6.39V6.4l-5-2.51a2.56 2.56 0 00-2.32 0zm5.6 7.6a1 1 0 01-.71-.3l-1.8-1.8a1 1 0 010-1.41 1 1 0 011.42 0l1.09 1.09 2.89-2.89a1 1 0 011.42 0 1 1 0 010 1.41l-3.6 3.6a1 1 0 01-.71.3z"/></symbol><symbol id="upload" viewBox="0 0 24 24"><path d="M12 22a1 1 0 01-1-1v-9.62l-3.11 3a1 1 0 01-1.38-1.44l4.79-4.62a1.26 1.26 0 01.28-.19A1.21 1.21 0 0112 8a1.07 1.07 0 01.32.07h.05a1.07 1.07 0 01.28.19l4.8 4.59a1 1 0 01-1.38 1.44l-3.11-3V21a1 1 0 01-.96 1zM4.22 4.58a1 1 0 01-.71-.29 1 1 0 010-1.42A3 3 0 015.7 2h12.6a3.09 3.09 0 012.2.91 1 1 0 010 1.42 1 1 0 01-1.41 0A1.1 1.1 0 0018.3 4H5.7a1.06 1.06 0 00-.77.32 1 1 0 01-.71.26z"/></symbol><symbol id="users" viewBox="0 0 24 24"><path d="M12.51 15c-.21-.11-.43-.2-.65-.29a5.87 5.87 0 10-8.24-1 6.15 6.15 0 001 1c-.22.09-.44.18-.65.29a9.23 9.23 0 00-3.29 2.93 1 1 0 001.63 1.16 7.22 7.22 0 012.59-2.26 7.35 7.35 0 016.68 0 7.22 7.22 0 012.59 2.26 1 1 0 001.64-1.15 9.23 9.23 0 00-3.3-2.94zm-4.26-1a3.88 3.88 0 113.87-3.89A3.88 3.88 0 018.25 14z"/><path d="M23.46 17.93a9.3 9.3 0 00-3.3-2.93c-.22-.11-.44-.2-.65-.29.18-.15.36-.3.53-.47a5.87 5.87 0 00-4.15-10 6 6 0 00-1.58.21 1 1 0 00.45 2h.07a4 4 0 013.8 1 3.83 3.83 0 011.14 2.73A3.88 3.88 0 0115.9 14h-.14a.7.7 0 00-.25.05 1 1 0 00-.62.92.93.93 0 00.07.33v.06l.08.12a1 1 0 00.84.49 7.29 7.29 0 015.92 3.08 1 1 0 001.66-1.12z"/></symbol><symbol id="wavy-check" viewBox="0 0 24 24"><path d="M12 22.75a3.78 3.78 0 01-2.54-1.4 4.4 4.4 0 00-1-.81 4.32 4.32 0 00-1.24-.13 3.8 3.8 0 01-2.82-.81 3.87 3.87 0 01-.82-2.84 4.13 4.13 0 00-.13-1.22 4 4 0 00-.78-1A3.88 3.88 0 011.25 12a3.78 3.78 0 011.4-2.54 4.4 4.4 0 00.81-1 4.32 4.32 0 00.13-1.24A3.8 3.8 0 014.4 4.4a3.87 3.87 0 012.84-.82 4.13 4.13 0 001.22-.13 4 4 0 001-.78A3.88 3.88 0 0112 1.25a3.78 3.78 0 012.54 1.4 4.6 4.6 0 001 .81 4.44 4.44 0 001.25.13 3.8 3.8 0 012.81.81 3.87 3.87 0 01.82 2.84 4.13 4.13 0 00.13 1.22 4 4 0 00.78 1A3.88 3.88 0 0122.75 12a3.78 3.78 0 01-1.4 2.54 4.6 4.6 0 00-.81 1 4.44 4.44 0 00-.13 1.25 3.8 3.8 0 01-.81 2.81 3.87 3.87 0 01-2.84.82 4.09 4.09 0 00-1.22.13 4 4 0 00-1 .78A3.88 3.88 0 0112 22.75zm0-19.5c-.28 0-.8.5-1.19.86A5.26 5.26 0 019.22 5.3a5.13 5.13 0 01-2 .28c-.58 0-1.23 0-1.45.24s-.23.85-.23 1.41a5.34 5.34 0 01-.29 2 5.29 5.29 0 01-1.21 1.61c-.37.4-.84.88-.84 1.16s.5.8.86 1.18a5.43 5.43 0 011.19 1.6 5.13 5.13 0 01.28 2c0 .58 0 1.23.24 1.45s.85.23 1.41.23a5.34 5.34 0 012 .29 5.29 5.29 0 011.61 1.21c.4.37.88.84 1.16.84s.8-.5 1.18-.86a5.43 5.43 0 011.6-1.19 5.11 5.11 0 011.94-.28c.59 0 1.24 0 1.46-.24s.23-.85.23-1.41a5.34 5.34 0 01.29-2 5.29 5.29 0 011.21-1.61c.37-.4.84-.88.84-1.16s-.5-.8-.86-1.19a5.26 5.26 0 01-1.14-1.64 5.11 5.11 0 01-.28-1.94c0-.59 0-1.24-.24-1.46s-.85-.23-1.41-.23a5.34 5.34 0 01-2-.29 5.29 5.29 0 01-1.61-1.21c-.4-.37-.88-.84-1.16-.84z"/><path d="M10.62 16a1 1 0 01-.69-.28L7.18 13.1a1 1 0 111.39-1.45l2 2L15.43 9a1 1 0 111.39 1.44l-5.51 5.25a1 1 0 01-.69.31z"/></symbol><symbol id="wifi" viewBox="0 0 24 24"><path d="M12 19.53a1 1 0 01-.72-.3 1 1 0 010-1.4 1 1 0 11.72 1.7zm-3.2-3.15a1 1 0 01-.71-.3 1 1 0 010-1.41 5.54 5.54 0 017.8 0 1 1 0 11-1.41 1.41 3.55 3.55 0 00-5 0 1 1 0 01-.67.3zm9.58-3.18a.94.94 0 01-.7-.29 8.09 8.09 0 00-11.37 0 1 1 0 11-1.41-1.42 10.09 10.09 0 0114.18 0 1 1 0 010 1.42 1 1 0 01-.69.29zm3.21-2.8a1 1 0 01-.7-.29 12.67 12.67 0 00-17.8 0A1 1 0 111.7 8.69a14.66 14.66 0 0120.6 0 1 1 0 01-.7 1.71z"/></symbol></svg>