<svg xmlns="http://www.w3.org/2000/svg" viewBox="0 0 24 24"><path d="M22.5,14.21v-.16l-.05-.11v-.11l-4-9.11a1.34,1.34,0,0,0-.22-.31,3.36,3.36,0,0,0-4.59,0,1,1,0,0,0-.3.72V7.6h-2.5V5.13a1,1,0,0,0-.3-.72A3.36,3.36,0,0,0,6,4.41a1,1,0,0,0-.22.31l-4,9.11v.11l-.05.11v.16a5,5,0,0,0-.27,1.53,4.76,4.76,0,0,0,9.52,0h0V9.6h2.5v6.14a4.76,4.76,0,1,0,9.52,0h0A4.82,4.82,0,0,0,22.5,14.21ZM7.39,5.73a1.29,1.29,0,0,1,1.35-.11v6.25A4.72,4.72,0,0,0,6,11a4.19,4.19,0,0,0-1,.1ZM6,18.5a2.78,2.78,0,0,1-2.76-2.76,2.87,2.87,0,0,1,.2-1v-.11A2.75,2.75,0,0,1,8.7,15.76h0A2.76,2.76,0,0,1,6,18.5ZM15.26,5.62a1.29,1.29,0,0,1,1.35.11L19,11.08A4.18,4.18,0,0,0,18,11a4.68,4.68,0,0,0-2.75.89ZM18,18.5a2.76,2.76,0,1,1,2.51-3.89l0,.11a2.87,2.87,0,0,1,.2,1A2.77,2.77,0,0,1,18,18.5Z"/></svg>