<svg xmlns="http://www.w3.org/2000/svg" viewBox="0 0 24 24"><path d="M19.2,22.6H4.8a3.41,3.41,0,0,1-3.4-3.4V7.77A3.16,3.16,0,0,1,1.49,7a.29.29,0,0,1,0-.09,3.18,3.18,0,0,1,.25-.67L3.41,3A2.78,2.78,0,0,1,5.91,1.4H18.09A2.78,2.78,0,0,1,20.59,3l1.65,3.3a3.38,3.38,0,0,1,.26.69V7a3.33,3.33,0,0,1,.09.78V19.2A3.4,3.4,0,0,1,19.2,22.6ZM3.4,8.2v11a1.4,1.4,0,0,0,1.4,1.4H19.2a1.4,1.4,0,0,0,1.4-1.4V8.2ZM4,6.2H20L18.8,3.84a.79.79,0,0,0-.71-.44H5.91a.79.79,0,0,0-.71.44Zm11,5.3H9a1,1,0,0,1,0-2h6a1,1,0,0,1,0,2Z"/></svg>