<svg xmlns="http://www.w3.org/2000/svg" viewBox="0 0 24 24"><path d="M22.5,19.62H22v-9.5a1.76,1.76,0,0,0-.51-1.23,1.74,1.74,0,0,0-1.24-.51H14.5V4.12a1.74,1.74,0,0,0-1.75-1.74h-9A1.74,1.74,0,0,0,2,4.12v15.5H1.5a1,1,0,0,0,0,2h21a1,1,0,0,0,0-2ZM20,10.38v9.24H14.5V10.38Zm-16-6h8.5V19.62H4Z"/><path d="M6,8.12H9a1,1,0,1,0,0-2H6a1,1,0,0,0,0,2Z"/><path d="M10.5,12.12h-3a1,1,0,1,0,0,2h3a1,1,0,0,0,0-2Z"/><path d="M9,15.88H6a1,1,0,0,0,0,2H9a1,1,0,1,0,0-2Z"/><path d="M18,15.88H16.5a1,1,0,0,0,0,2H18a1,1,0,1,0,0-2Z"/><path d="M16.5,14.12H18a1,1,0,0,0,0-2H16.5a1,1,0,0,0,0,2Z"/></svg>