<svg xmlns="http://www.w3.org/2000/svg" viewBox="0 0 24 24"><path d="M19.22,22.07a1,1,0,0,1-.7-.3L16,19.28h-3a3.14,3.14,0,0,1-2.87-1.86L6.91,20.71A1,1,0,0,1,5.2,20V16.55H4.53A3.14,3.14,0,0,1,1.4,13.41V5.07A3.14,3.14,0,0,1,4.53,1.93h12.8a3.15,3.15,0,0,1,3.14,3.14V9.56a3.13,3.13,0,0,1,2.13,3v3.62a3.13,3.13,0,0,1-2.38,3v1.88a1,1,0,0,1-.61.92A1.09,1.09,0,0,1,19.22,22.07Zm-7.29-6.52v.6a1.13,1.13,0,0,0,1.14,1.13h3.37a1,1,0,0,1,.71.3l1.07,1.07v-.37a1,1,0,0,1,1-1h.25a1.13,1.13,0,0,0,1.13-1.13V12.53a1.14,1.14,0,0,0-1.13-1.13h-6.4a1.14,1.14,0,0,0-1.14,1.13ZM4.53,3.93A1.14,1.14,0,0,0,3.4,5.07v8.34a1.14,1.14,0,0,0,1.13,1.14H6.2a1,1,0,0,1,1,1v2l2.73-2.73V12.53A3.14,3.14,0,0,1,13.07,9.4h5.4V5.07a1.14,1.14,0,0,0-1.14-1.14Z"/></svg>