<svg xmlns="http://www.w3.org/2000/svg" viewBox="0 0 24 24"><path d="M20.42,22.6a1,1,0,0,1-.89-.53L17.75,18.7a9.53,9.53,0,0,1-5.49,1.8,9.57,9.57,0,0,1-5.76-2l-2,3.6a1,1,0,1,1-1.73-1l2.26-4a13.79,13.79,0,0,1-1.45-1.82A1,1,0,0,1,5.2,14.21,11.64,11.64,0,0,0,6,15.31L9.69,8.9A3.61,3.61,0,0,1,8.63,6.35a3.66,3.66,0,0,1,2.63-3.5V2.4a1,1,0,0,1,2,0v.45a3.64,3.64,0,0,1,1.56,6.07l3.5,6.6a11.09,11.09,0,0,0,1-1.31A1,1,0,1,1,21,15.32a13.84,13.84,0,0,1-1.69,2.07l2,3.74a1,1,0,0,1-.42,1.35A.93.93,0,0,1,20.42,22.6ZM7.51,16.75a7.66,7.66,0,0,0,4.75,1.75,7.63,7.63,0,0,0,4.54-1.58l-3.73-7a3.94,3.94,0,0,1-1.64,0Zm4.75-12a1.63,1.63,0,1,0,1.63,1.64A1.64,1.64,0,0,0,12.26,4.71Z"/></svg>