<svg xmlns="http://www.w3.org/2000/svg" viewBox="0 0 24 24"><path d="M10.09,20.6H7.69A2.6,2.6,0,0,1,5.09,18V6a2.6,2.6,0,0,1,2.6-2.6h8.4A2.61,2.61,0,0,1,18.69,6V9a1,1,0,0,0,2,0V6a4.61,4.61,0,0,0-4.6-4.6H7.69A4.6,4.6,0,0,0,3.09,6V18a4.6,4.6,0,0,0,4.6,4.6h2.4a1,1,0,0,0,0-2Z"/><path d="M10.09,13.4H7.69a1,1,0,1,0,0,2h2.4a1,1,0,0,0,0-2Z"/><path d="M7.69,6.2a1,1,0,1,0,0,2h7.8a1,1,0,0,0,0-2Z"/><path d="M12.89,10.8a1,1,0,0,0-1-1H7.69a1,1,0,0,0,0,2h4.2A1,1,0,0,0,12.89,10.8Z"/><path d="M20.67,20.18l-1.59-1.83.89-.74a2.09,2.09,0,0,0,.24-3l-1.27-1.41A2.07,2.07,0,0,0,16,13l-3.33,2.79a2.1,2.1,0,0,0-.24,3l1.26,1.41a2.09,2.09,0,0,0,2.94.26l.91-.77,1.61,1.86a1,1,0,0,0,.75.34,1,1,0,0,0,.66-.24A1,1,0,0,0,20.67,20.18Zm-2-4.13L17,17.47h0l-1.67,1.4a.11.11,0,0,1-.14,0l-1.16-1.3c-.13-.13-.12-.18,0-.33l3.22-2.7h.05a.12.12,0,0,1,.09,0l1.21,1.36A.11.11,0,0,1,18.63,16.05Z"/></svg>