<svg xmlns="http://www.w3.org/2000/svg" viewBox="0 0 24 24"><path d="M20.94,8.29a6.47,6.47,0,0,0-.42-2.21,4.55,4.55,0,0,0-2.63-2.63A6.3,6.3,0,0,0,15.71,3C14.74,3,14.44,3,12,3S9.24,3,8.29,3a6.31,6.31,0,0,0-2.19.42A4.57,4.57,0,0,0,3.47,6.08a6.54,6.54,0,0,0-.42,2.18C3,9.23,3,9.53,3,12s0,2.76.06,3.71a6.55,6.55,0,0,0,.42,2.19A4.6,4.6,0,0,0,6.1,20.5,6.58,6.58,0,0,0,8.29,21C9.25,21,9.56,21,12,21s2.75,0,3.71-.06a6.3,6.3,0,0,0,2.18-.42,4.62,4.62,0,0,0,2.64-2.63A6.81,6.81,0,0,0,21,15.71c0-1,.05-1.26.05-3.71S21,9.25,20.94,8.29Zm-9,8.3A4.62,4.62,0,1,1,16.61,12,4.62,4.62,0,0,1,12,16.59ZM16.8,8.25a1.08,1.08,0,1,1,1.07-1.08A1.08,1.08,0,0,1,16.8,8.25Z"/><path d="M12,15a3,3,0,1,0-3-3A3,3,0,0,0,12,15Z"/></svg>