<svg xmlns="http://www.w3.org/2000/svg" viewBox="0 0 24 24"><path d="M12,22.39a1,1,0,0,1-.53-.16C6.16,18.88,3.8,16.29,3.8,13.81v-8a1,1,0,0,1,.55-.9L9.94,2.1a4.6,4.6,0,0,1,4.12,0l5.59,2.79a1,1,0,0,1,.55.9v8c0,3.34-2.9,5.41-7.67,8.42A1,1,0,0,1,12,22.39ZM5.8,6.4v7.41c0,1.58,2.09,3.73,6.2,6.39,4.37-2.78,6.2-4.34,6.2-6.39V6.4l-5-2.51a2.56,2.56,0,0,0-2.32,0ZM11.4,14a1,1,0,0,1-.71-.3l-1.8-1.8a1,1,0,0,1,0-1.41,1,1,0,0,1,1.42,0l1.09,1.09,2.89-2.89a1,1,0,0,1,1.42,0,1,1,0,0,1,0,1.41l-3.6,3.6A1,1,0,0,1,11.4,14Z"/></svg>