<svg xmlns="http://www.w3.org/2000/svg" viewBox="0 0 24 24"><path d="M12.51,15c-.21-.11-.43-.2-.65-.29a5.87,5.87,0,1,0-8.24-1,6.15,6.15,0,0,0,1,1c-.22.09-.44.18-.65.29A9.23,9.23,0,0,0,.68,17.93a1,1,0,0,0,1.63,1.16h0a7.22,7.22,0,0,1,2.59-2.26,7.35,7.35,0,0,1,6.68,0,7.22,7.22,0,0,1,2.59,2.26,1,1,0,0,0,1.64-1.15A9.23,9.23,0,0,0,12.51,15ZM8.25,14a3.88,3.88,0,1,1,3.87-3.89h0A3.88,3.88,0,0,1,8.25,14Z"/><path d="M23.46,17.93A9.3,9.3,0,0,0,20.16,15c-.22-.11-.44-.2-.65-.29.18-.15.36-.3.53-.47a5.87,5.87,0,0,0-4.15-10,6,6,0,0,0-1.58.21,1,1,0,0,0,.45,2l.07,0a4,4,0,0,1,3.8,1,3.83,3.83,0,0,1,1.14,2.73A3.88,3.88,0,0,1,15.9,14h-.14a.7.7,0,0,0-.25.05,1,1,0,0,0-.62.92h0a.93.93,0,0,0,.07.33v.06l.08.12a1,1,0,0,0,.84.49h0a7.29,7.29,0,0,1,5.92,3.08,1,1,0,0,0,1.66-1.12Z"/></svg>