<svg xmlns="http://www.w3.org/2000/svg" viewBox="0 0 24 24"><path d="M12,22.75a3.78,3.78,0,0,1-2.54-1.4,4.4,4.4,0,0,0-1-.81,4.32,4.32,0,0,0-1.24-.13A3.8,3.8,0,0,1,4.4,19.6a3.87,3.87,0,0,1-.82-2.84,4.13,4.13,0,0,0-.13-1.22,4,4,0,0,0-.78-1A3.88,3.88,0,0,1,1.25,12a3.78,3.78,0,0,1,1.4-2.54,4.4,4.4,0,0,0,.81-1,4.32,4.32,0,0,0,.13-1.24A3.8,3.8,0,0,1,4.4,4.4a3.87,3.87,0,0,1,2.84-.82,4.13,4.13,0,0,0,1.22-.13,4,4,0,0,0,1-.78A3.88,3.88,0,0,1,12,1.25a3.78,3.78,0,0,1,2.54,1.4,4.6,4.6,0,0,0,1,.81,4.44,4.44,0,0,0,1.25.13,3.8,3.8,0,0,1,2.81.81,3.87,3.87,0,0,1,.82,2.84,4.13,4.13,0,0,0,.13,1.22,4,4,0,0,0,.78,1A3.88,3.88,0,0,1,22.75,12a3.78,3.78,0,0,1-1.4,2.54,4.6,4.6,0,0,0-.81,1,4.44,4.44,0,0,0-.13,1.25,3.8,3.8,0,0,1-.81,2.81,3.87,3.87,0,0,1-2.84.82,4.09,4.09,0,0,0-1.22.13,4,4,0,0,0-1,.78A3.88,3.88,0,0,1,12,22.75Zm0-19.5c-.28,0-.8.5-1.19.86A5.26,5.26,0,0,1,9.22,5.3a5.13,5.13,0,0,1-2,.28c-.58,0-1.23,0-1.45.24s-.23.85-.23,1.41a5.34,5.34,0,0,1-.29,2,5.29,5.29,0,0,1-1.21,1.61c-.37.4-.84.88-.84,1.16s.5.8.86,1.18a5.43,5.43,0,0,1,1.19,1.6,5.13,5.13,0,0,1,.28,2c0,.58,0,1.23.24,1.45s.85.23,1.41.23a5.34,5.34,0,0,1,2,.29,5.29,5.29,0,0,1,1.61,1.21c.4.37.88.84,1.16.84s.8-.5,1.18-.86a5.43,5.43,0,0,1,1.6-1.19,5.11,5.11,0,0,1,1.94-.28c.59,0,1.24,0,1.46-.24s.23-.85.23-1.41a5.34,5.34,0,0,1,.29-2,5.29,5.29,0,0,1,1.21-1.61c.37-.4.84-.88.84-1.16s-.5-.8-.86-1.19A5.26,5.26,0,0,1,18.7,9.22a5.11,5.11,0,0,1-.28-1.94c0-.59,0-1.24-.24-1.46s-.85-.23-1.41-.23a5.34,5.34,0,0,1-2-.29,5.29,5.29,0,0,1-1.61-1.21C12.76,3.72,12.28,3.25,12,3.25Z"/><path d="M10.62,16a1,1,0,0,1-.69-.28L7.18,13.1a1,1,0,1,1,1.39-1.45l2,2L15.43,9a1,1,0,1,1,1.39,1.44l-5.51,5.25A1,1,0,0,1,10.62,16Z"/></svg>