<svg xmlns="http://www.w3.org/2000/svg" viewBox="0 0 24 24"><path d="M12,19.53a1,1,0,0,1-.72-.3,1,1,0,0,1,0-1.4l0,0A1,1,0,1,1,12,19.53Zm-3.2-3.15a1,1,0,0,1-.71-.3,1,1,0,0,1,0-1.41,5.54,5.54,0,0,1,7.8,0,1,1,0,1,1-1.41,1.41,3.55,3.55,0,0,0-5,0A1,1,0,0,1,8.81,16.38Zm9.58-3.18a.94.94,0,0,1-.7-.29,8.09,8.09,0,0,0-11.37,0,1,1,0,1,1-1.41-1.42,10.09,10.09,0,0,1,14.18,0,1,1,0,0,1,0,1.42A1,1,0,0,1,18.39,13.2Zm3.21-2.8a1,1,0,0,1-.7-.29,12.67,12.67,0,0,0-17.8,0A1,1,0,1,1,1.7,8.69a14.66,14.66,0,0,1,20.6,0,1,1,0,0,1-.7,1.71Z"/></svg>