<svg xmlns="http://www.w3.org/2000/svg" viewBox="0 0 666 730"><path fill="#8bd042" d="M30.19 0h33.75v35.44H30.19Zm131.43 0h53.28v53.16h-53.28Zm-5.33 155.92h63.93v67.33h-63.93ZM296.59 0h67.49v70.87h-67.49Zm-7.1 155.92h79.92v86.82h-79.92Zm-8.88 155.93h95.9v104.53h-95.9Zm0 155.92h95.9v102.76h-95.9Zm0 155.92h95.9v102.77h-95.9ZM138.53 467.77h95.9v102.76h-95.9Zm1.77 155.92h95.91v102.77H140.3Zm-140.3 0h95.9v102.77H0ZM429.79 0h81.7v85.05h-81.7Zm-7.1 155.92h97.68v102.77h-97.68Zm0 155.93h97.68v102.76h-97.68Zm0 155.92h97.68v102.76h-97.68Zm-3.55 155.92h97.68V730h-97.68ZM563 0h103v102.77H563Zm0 311.85h103v102.76H563Zm0-155.93h103v102.77H563Zm0 311.85h103v102.76H563Zm0 155.92h103v102.77H563Z"/></svg>